<!--
 * GNU General Public License, version 2.0.
 *
 * Copyright (c) 2025 Tijme Gommers (@tijme).
 *
 * This source code file is part of Dittobytes. Dittobytes is 
 * licensed under GNU General Public License, version 2.0, and 
 * you are free to use, modify, and distribute this file under 
 * its terms. However, any modified versions of this file must 
 * include this same license and copyright notice.
-->
<svg xmlns="http://www.w3.org/2000/svg" viewBox="4 4 42 42">
    <path xmlns="http://www.w3.org/2000/svg" fill="#940547" d="M9 4C6.25 4 4 6.25 4 9v32c0 2.75 2.25 5 5 5h32c2.75 0 5-2.25 5-5V9c0-2.75-2.25-5-5-5H9Zm0 2h32c1.668 0 3 1.332 3 3v32c0 1.668-1.332 3-3 3H9c-1.668 0-3-1.332-3-3V9c0-1.668 1.332-3 3-3Zm6 2c-.552 0-1 .448-1 1s.448 1 1 1 1-.448 1-1-.448-1-1-1Zm4 0c-.552 0-1 .448-1 1s.448 1 1 1 1-.448 1-1-.448-1-1-1Zm4 0c-.552 0-1 .448-1 1s.448 1 1 1 1-.448 1-1-.448-1-1-1Zm4 0c-.552 0-1 .448-1 1s.448 1 1 1 1-.448 1-1-.448-1-1-1Zm4 0c-.552 0-1 .448-1 1s.448 1 1 1 1-.448 1-1-.448-1-1-1Zm4 0c-.552 0-1 .448-1 1s.448 1 1 1 1-.448 1-1-.448-1-1-1ZM9 14c-.552 0-1 .448-1 1s.448 1 1 1 1-.448 1-1-.448-1-1-1Zm32 0c-.552 0-1 .448-1 1s.448 1 1 1 1-.448 1-1-.448-1-1-1ZM9 18c-.552 0-1 .448-1 1s.448 1 1 1 1-.448 1-1-.448-1-1-1Zm32 0c-.552 0-1 .448-1 1s.448 1 1 1 1-.448 1-1-.448-1-1-1ZM9 22c-.552 0-1 .448-1 1s.448 1 1 1 1-.448 1-1-.448-1-1-1Zm32 0c-.552 0-1 .448-1 1s.448 1 1 1 1-.448 1-1-.448-1-1-1ZM9 26c-.552 0-1 .448-1 1s.448 1 1 1 1-.448 1-1-.448-1-1-1Zm32 0c-.552 0-1 .448-1 1s.448 1 1 1 1-.448 1-1-.448-1-1-1ZM9 30c-.552 0-1 .448-1 1s.448 1 1 1 1-.448 1-1-.448-1-1-1Zm32 0c-.552 0-1 .448-1 1s.448 1 1 1 1-.448 1-1-.448-1-1-1ZM9 34c-.552 0-1 .448-1 1s.448 1 1 1 1-.448 1-1-.448-1-1-1Zm32 0c-.552 0-1 .448-1 1s.448 1 1 1 1-.448 1-1-.448-1-1-1Zm-26 6c-.552 0-1 .448-1 1s.448 1 1 1 1-.448 1-1-.448-1-1-1Zm4 0c-.552 0-1 .448-1 1s.448 1 1 1 1-.448 1-1-.448-1-1-1Zm4 0c-.552 0-1 .448-1 1s.448 1 1 1 1-.448 1-1-.448-1-1-1Zm4 0c-.552 0-1 .448-1 1s.448 1 1 1 1-.448 1-1-.448-1-1-1Zm4 0c-.552 0-1 .448-1 1s.448 1 1 1 1-.448 1-1-.448-1-1-1Zm4 0c-.552 0-1 .448-1 1s.448 1 1 1 1-.448 1-1-.448-1-1-1Z"/>
    <path fill="#940547" d="M20.98 12.963h-1.573l-.625-1.626h-2.861l-.591 1.626h-1.533l2.788-7.158h1.528Zm-2.662-2.832-.986-2.656-.967 2.656Zm3.432 2.832V5.805h3.042q1.147 0 1.667.193.521.193.833.686.313.493.313 1.128 0 .805-.474 1.33t-1.416.662q.469.273.774.6.305.328.823 1.163l.874 1.396h-1.729l-1.045-1.558q-.557-.835-.762-1.052-.205-.217-.434-.298-.23-.08-.728-.08h-.293v2.988Zm1.445-4.131h1.07q1.04 0 1.298-.088.259-.088.406-.302.146-.215.146-.538 0-.361-.193-.583-.192-.222-.544-.281-.176-.024-1.055-.024h-1.128Zm5.753 4.131V5.805h2.163l1.299 4.883 1.284-4.883h2.168v7.158h-1.343V7.328l-1.421 5.635h-1.391l-1.416-5.635v5.635Zm-5.005 5.189-2.656.293q-.097-.82-.508-1.211-.41-.39-1.064-.39-.869 0-1.47.781-.6.781-.757 3.252 1.026-1.211 2.549-1.211 1.719 0 2.945 1.309 1.225 1.308 1.225 3.379 0 2.197-1.289 3.525-1.289 1.328-3.31 1.328-2.168 0-3.565-1.684-1.396-1.685-1.396-5.523 0-3.935 1.455-5.674 1.455-1.738 3.779-1.738 1.631 0 2.7.913 1.07.913 1.362 2.651Zm-6.22 5.987q0 1.338.615 2.065.615.728 1.406.728.762 0 1.27-.596t.508-1.953q0-1.397-.547-2.046-.547-.649-1.367-.649-.791 0-1.338.62t-.547 1.831Zm13.426 4.824v-2.881H25.29V23.68l6.211-9.092h2.305v9.082h1.777v2.412h-1.777v2.881Zm0-5.293v-4.893l-3.291 4.893Z" style="text-wrap-mode:nowrap" transform="translate(-.255967 7.774328)"/>
</svg>