<!--
 * GNU General Public License, version 2.0.
 *
 * Copyright (c) 2025 Tijme Gommers (@tijme).
 *
 * This source code file is part of Dittobytes. Dittobytes is 
 * licensed under GNU General Public License, version 2.0, and 
 * you are free to use, modify, and distribute this file under 
 * its terms. However, any modified versions of this file must 
 * include this same license and copyright notice.
-->
<svg xmlns="http://www.w3.org/2000/svg" viewBox="4 4 42 42">
	<path fill="#ec0545" d="M9 4C6.25 4 4 6.25 4 9v32c0 2.75 2.25 5 5 5h32c2.75 0 5-2.25 5-5V9c0-2.75-2.25-5-5-5H9Zm0 2h32c1.668 0 3 1.332 3 3v32c0 1.668-1.332 3-3 3H9c-1.668 0-3-1.332-3-3V9c0-1.668 1.332-3 3-3Zm6 2c-.552 0-1 .448-1 1s.448 1 1 1 1-.448 1-1-.448-1-1-1Zm4 0c-.552 0-1 .448-1 1s.448 1 1 1 1-.448 1-1-.448-1-1-1Zm4 0c-.552 0-1 .448-1 1s.448 1 1 1 1-.448 1-1-.448-1-1-1Zm4 0c-.552 0-1 .448-1 1s.448 1 1 1 1-.448 1-1-.448-1-1-1Zm4 0c-.552 0-1 .448-1 1s.448 1 1 1 1-.448 1-1-.448-1-1-1Zm4 0c-.552 0-1 .448-1 1s.448 1 1 1 1-.448 1-1-.448-1-1-1ZM9 14c-.552 0-1 .448-1 1s.448 1 1 1 1-.448 1-1-.448-1-1-1Zm32 0c-.552 0-1 .448-1 1s.448 1 1 1 1-.448 1-1-.448-1-1-1ZM9 18c-.552 0-1 .448-1 1s.448 1 1 1 1-.448 1-1-.448-1-1-1Zm32 0c-.552 0-1 .448-1 1s.448 1 1 1 1-.448 1-1-.448-1-1-1ZM9 22c-.552 0-1 .448-1 1s.448 1 1 1 1-.448 1-1-.448-1-1-1Zm32 0c-.552 0-1 .448-1 1s.448 1 1 1 1-.448 1-1-.448-1-1-1ZM9 26c-.552 0-1 .448-1 1s.448 1 1 1 1-.448 1-1-.448-1-1-1Zm32 0c-.552 0-1 .448-1 1s.448 1 1 1 1-.448 1-1-.448-1-1-1ZM9 30c-.552 0-1 .448-1 1s.448 1 1 1 1-.448 1-1-.448-1-1-1Zm32 0c-.552 0-1 .448-1 1s.448 1 1 1 1-.448 1-1-.448-1-1-1ZM9 34c-.552 0-1 .448-1 1s.448 1 1 1 1-.448 1-1-.448-1-1-1Zm32 0c-.552 0-1 .448-1 1s.448 1 1 1 1-.448 1-1-.448-1-1-1Zm-26 6c-.552 0-1 .448-1 1s.448 1 1 1 1-.448 1-1-.448-1-1-1Zm4 0c-.552 0-1 .448-1 1s.448 1 1 1 1-.448 1-1-.448-1-1-1Zm4 0c-.552 0-1 .448-1 1s.448 1 1 1 1-.448 1-1-.448-1-1-1Zm4 0c-.552 0-1 .448-1 1s.448 1 1 1 1-.448 1-1-.448-1-1-1Zm4 0c-.552 0-1 .448-1 1s.448 1 1 1 1-.448 1-1-.448-1-1-1Zm4 0c-.552 0-1 .448-1 1s.448 1 1 1 1-.448 1-1-.448-1-1-1Z"></path>
	<path fill="#ec0545" d="M20.724 20.718h-1.573l-.625-1.626h-2.861l-.591 1.626h-1.533l2.788-7.158h1.528l2.867 7.158Zm-2.662-2.832-.986-2.656-.967 2.656h1.953Zm3.408 2.832V13.56h2.163l1.299 4.883 1.284-4.883h2.168v7.158h-1.343v-5.635l-1.42 5.635h-1.392l-1.416-5.635v5.635H21.47Zm8.345-7.158h2.642c.596 0 1.05.046 1.362.137.42.123.78.343 1.079.659.3.315.528.702.684 1.159.156.457.234 1.021.234 1.692 0 .589-.073 1.097-.22 1.524-.178.521-.434.942-.766 1.264-.25.245-.589.435-1.016.572-.319.101-.745.151-1.279.151h-2.72V13.56Zm1.445 1.211v4.741h1.079c.404 0 .696-.023.874-.068.235-.059.43-.158.584-.298.155-.14.281-.37.378-.691.098-.321.147-.758.147-1.311 0-.553-.049-.978-.147-1.275-.097-.296-.234-.527-.41-.693-.175-.166-.398-.278-.669-.337-.201-.045-.596-.068-1.186-.068h-.65Zm-7.753 11.136-2.656.293c-.064-.547-.234-.95-.508-1.211-.273-.26-.628-.39-1.064-.39-.579 0-1.069.26-1.47.781-.4.521-.652 1.605-.757 3.252.684-.807 1.534-1.211 2.549-1.211 1.146 0 2.128.436 2.945 1.309.817.872 1.225 1.998 1.225 3.379 0 1.465-.429 2.64-1.289 3.525-.859.885-1.962 1.328-3.31 1.328-1.445 0-2.633-.561-3.565-1.684-.93-1.123-1.396-2.964-1.396-5.523 0-2.623.485-4.515 1.455-5.674.97-1.159 2.23-1.738 3.779-1.738 1.088 0 1.988.304 2.7.913.714.609 1.168 1.492 1.362 2.651Zm-6.22 5.987c0 .892.205 1.58.615 2.065.41.485.879.728 1.406.728.508 0 .932-.199 1.27-.596.339-.397.508-1.048.508-1.953 0-.931-.182-1.613-.547-2.046-.364-.433-.82-.649-1.367-.649-.527 0-.973.207-1.338.62-.364.413-.547 1.024-.547 1.831Zm13.427 4.824v-2.881h-5.86v-2.402l6.211-9.092h2.305v9.082h1.777v2.412H33.37v2.881h-2.656Zm0-5.293v-4.893l-3.291 4.893h3.291Z" style="text-wrap-mode:nowrap"></path>
</svg>