<!--
 * GNU General Public License, version 2.0.
 *
 * Copyright (c) 2025 Tijme Gommers (@tijme).
 *
 * This source code file is part of Dittobytes. Dittobytes is 
 * licensed under GNU General Public License, version 2.0, and 
 * you are free to use, modify, and distribute this file under 
 * its terms. However, any modified versions of this file must 
 * include this same license and copyright notice.
-->
<svg xmlns="http://www.w3.org/2000/svg" viewBox="0 0 500 500">
  <defs>
    <linearGradient id="j" x1="339.305" x2="339.305" y1="206.399" y2="805.4" gradientTransform="matrix(.308821 0 0 -.308822 216.261005 410.512791)" gradientUnits="userSpaceOnUse" href="#a" spreadMethod="pad"/>
    <linearGradient id="a">
      <stop offset="0" stop-color="#9e0044"/>
      <stop offset="1" stop-color="#4e0144"/>
    </linearGradient>
    <linearGradient id="k" x1="349.594" x2="349.594" y1="154.641" y2="753.642" gradientUnits="userSpaceOnUse" href="#b"/>
    <linearGradient id="b">
      <stop offset="0" stop-color="#ff4667"/>
      <stop offset="1" stop-color="#d6004e"/>
    </linearGradient>
    <linearGradient id="f" x1="339.305" x2="339.305" y1="206.399" y2="805.4" gradientTransform="translate(-4.453537 -51.758141)" gradientUnits="userSpaceOnUse" href="#a" spreadMethod="pad"/>
    <linearGradient id="m" x1="388.289" x2="388.289" y1="310.447" y2="753.642" gradientUnits="userSpaceOnUse" href="#c"/>
    <linearGradient id="c">
      <stop offset="0" stop-color="#f0074b"/>
      <stop offset="1" stop-color="#9d0046"/>
    </linearGradient>
    <linearGradient id="g" x1="339.305" x2="339.305" y1="206.399" y2="805.4" gradientTransform="translate(-4.453537 -51.758141)" gradientUnits="userSpaceOnUse" href="#a" spreadMethod="pad"/>
    <linearGradient id="o" x1="394.023" x2="394.023" y1="374.668" y2="753.642" gradientUnits="userSpaceOnUse" href="#d"/>
    <linearGradient id="d">
      <stop offset="0" stop-color="#9e0044"/>
      <stop offset="1" stop-color="#4e0144"/>
    </linearGradient>
    <linearGradient id="h" x1="394.023" x2="394.023" y1="374.668" y2="753.642" gradientUnits="userSpaceOnUse" href="#d"/>
    <linearGradient id="q" x1="369.478" x2="369.478" y1="380.727" y2="753.642" gradientUnits="userSpaceOnUse" href="#e"/>
    <linearGradient id="e">
      <stop offset="0" stop-color="#ed004b"/>
      <stop offset="1" stop-color="#9f0046"/>
    </linearGradient>
    <clipPath id="l">
      <path fill="url(#f)" fill-opacity=".52" d="M241.046 155.542c-2.8.7-8.4 2.9-12.5 4.8-4.1 2-11.1 6.3-15.5 9.6s-11.1 9.3-15 13.5c-3.9 4.1-10.7 12.6-15.2 18.9-4.5 6.3-10.5 15.5-13.4 20.4-2.8 4.9-7.3 13.9-9.9 20-2.6 6.1-8.7 21.8-13.5 35-4.8 13.2-10.8 28.7-13.4 34.5-2.6 5.8-7.5 15.2-11 21-3.5 5.8-13.4 20.9-22.1 33.5-8.7 12.6-18.599 27.6-21.899 33.2-3.4 5.7-8.3 14.7-11 20-2.7 5.4-6.9 15-9.4 21.3-2.5 6.3-5.7 16-7.1 21.5-1.4 5.5-3.2 14-4 19-.9 5-2.1 14.6-2.7 21.5-.7 7.1-.9 18.3-.5 26 .3 7.4 1.3 17.5 2.1 22.5.9 5 2.5 12.1 3.6 16 1.1 3.9 3.4 10.8 5.1 15.5 1.7 4.7 6.3 15.2 10.3 23.5 4 8.2 9.9 18.8 13.1 23.5 3.1 4.7 8.4 12.1 11.699 16.5 3.3 4.4 12.1 14.1 19.6 21.5 7.5 7.5 18.8 17.4 25.1 22.2 6.3 4.7 16.9 12.1 23.5 16.3 6.6 4.2 18.3 10.8 26 14.6 7.7 3.8 20.8 9.1 29 11.8 8.2 2.7 24.9 7.2 37 10 12.1 2.8 26.3 5.7 31.5 6.5 5.2.9 16.3 2.1 24.5 2.8 8.2.6 26 1.2 39.5 1.2s31.9-.5 41-1.2c9.1-.7 20.9-2 26.3-2.8 5.3-.8 15.2-2.6 21.9-4 6.8-1.4 17.3-3.8 23.3-5.4 6-1.6 15.5-4.5 21-6.3 5.5-1.9 15-5.5 21-7.9 6-2.5 14.7-6.4 19.3-8.7 4.5-2.2 13.7-7.8 20.4-12.4 6.8-4.5 16.6-11.6 21.8-15.8 5.2-4.2 14.2-12.6 20-18.6 5.8-6 13.5-15.2 17.2-20.4 3.7-5.2 9.4-14.6 12.7-20.9 3.3-6.3 7.6-16.2 9.5-22 1.9-5.8 4.3-14.3 5.3-19 1.4-6.7 1.8-12.8 1.7-29.5 0-18.8-.3-22.2-2.6-32.5-1.4-6.3-4.2-16-6.3-21.5-2-5.5-6.5-15.9-10-23s-8.9-16.8-12.1-21.5c-3.1-4.7-8.4-12.1-11.8-16.5-3.3-4.4-9-11.4-12.7-15.5-3.6-4.1-10.7-12-15.8-17.5-5.1-5.5-12-13.6-15.3-18-3.3-4.4-8.5-13-11.4-19-3-6.1-6.3-14.6-7.5-19-1.7-6.2-2.1-11-2.2-21.5 0-9.3.5-16 1.7-21.5 1-4.4 5.1-18.4 9.1-31 4-12.6 8.1-27.7 9-33.5 1.3-7.6 1.6-13.1 1.2-20-.3-5.2-1.4-12-2.3-15-.9-3-3-8.2-4.7-11.5-1.7-3.4-6.1-9.2-10.1-13.3-3.9-4.1-9.8-8.9-13.1-10.7-3.3-1.9-8.7-4.1-12-5-3.3-.8-9.9-1.5-14.7-1.5-4.9 0-11.2.5-14 1.1-2.9.6-8 2-11.3 3.1-3.3 1.1-11 4.3-17 7.2-6 2.9-20.2 10.6-31.5 17.1-11.3 6.6-24.4 13.7-29.3 15.7-4.8 2.1-12 4.7-15.9 5.7-4 1.1-10.2 2.2-13.8 2.6-4.4.4-8.9.1-14-1-4.1-.8-10.2-3-13.4-4.8-3.3-1.8-9-6.1-12.6-9.7-3.7-3.7-11.1-13.2-17-21.9-6.4-9.4-12.7-17.4-16-20.4-3-2.7-7.7-6-10.5-7.3-3.6-1.8-7.2-2.6-13-2.9-4.7-.3-10.1.1-13 .8Z" class="s0" paint-order="fill"/>
    </clipPath>
    <clipPath id="n">
      <path fill="url(#g)" fill-opacity=".52" d="M241.046 155.542c-2.8.7-8.4 2.9-12.5 4.8-4.1 2-11.1 6.3-15.5 9.6s-11.1 9.3-15 13.5c-3.9 4.1-10.7 12.6-15.2 18.9-4.5 6.3-10.5 15.5-13.4 20.4-2.8 4.9-7.3 13.9-9.9 20-2.6 6.1-8.7 21.8-13.5 35-4.8 13.2-10.8 28.7-13.4 34.5-2.6 5.8-7.5 15.2-11 21-3.5 5.8-13.4 20.9-22.1 33.5-8.7 12.6-18.599 27.6-21.899 33.2-3.4 5.7-8.3 14.7-11 20-2.7 5.4-6.9 15-9.4 21.3-2.5 6.3-5.7 16-7.1 21.5-1.4 5.5-3.2 14-4 19-.9 5-2.1 14.6-2.7 21.5-.7 7.1-.9 18.3-.5 26 .3 7.4 1.3 17.5 2.1 22.5.9 5 2.5 12.1 3.6 16 1.1 3.9 3.4 10.8 5.1 15.5 1.7 4.7 6.3 15.2 10.3 23.5 4 8.2 9.9 18.8 13.1 23.5 3.1 4.7 8.4 12.1 11.699 16.5 3.3 4.4 12.1 14.1 19.6 21.5 7.5 7.5 18.8 17.4 25.1 22.2 6.3 4.7 16.9 12.1 23.5 16.3 6.6 4.2 18.3 10.8 26 14.6 7.7 3.8 20.8 9.1 29 11.8 8.2 2.7 24.9 7.2 37 10 12.1 2.8 26.3 5.7 31.5 6.5 5.2.9 16.3 2.1 24.5 2.8 8.2.6 26 1.2 39.5 1.2s31.9-.5 41-1.2c9.1-.7 20.9-2 26.3-2.8 5.3-.8 15.2-2.6 21.9-4 6.8-1.4 17.3-3.8 23.3-5.4 6-1.6 15.5-4.5 21-6.3 5.5-1.9 15-5.5 21-7.9 6-2.5 14.7-6.4 19.3-8.7 4.5-2.2 13.7-7.8 20.4-12.4 6.8-4.5 16.6-11.6 21.8-15.8 5.2-4.2 14.2-12.6 20-18.6 5.8-6 13.5-15.2 17.2-20.4 3.7-5.2 9.4-14.6 12.7-20.9 3.3-6.3 7.6-16.2 9.5-22 1.9-5.8 4.3-14.3 5.3-19 1.4-6.7 1.8-12.8 1.7-29.5 0-18.8-.3-22.2-2.6-32.5-1.4-6.3-4.2-16-6.3-21.5-2-5.5-6.5-15.9-10-23s-8.9-16.8-12.1-21.5c-3.1-4.7-8.4-12.1-11.8-16.5-3.3-4.4-9-11.4-12.7-15.5-3.6-4.1-10.7-12-15.8-17.5-5.1-5.5-12-13.6-15.3-18-3.3-4.4-8.5-13-11.4-19-3-6.1-6.3-14.6-7.5-19-1.7-6.2-2.1-11-2.2-21.5 0-9.3.5-16 1.7-21.5 1-4.4 5.1-18.4 9.1-31 4-12.6 8.1-27.7 9-33.5 1.3-7.6 1.6-13.1 1.2-20-.3-5.2-1.4-12-2.3-15-.9-3-3-8.2-4.7-11.5-1.7-3.4-6.1-9.2-10.1-13.3-3.9-4.1-9.8-8.9-13.1-10.7-3.3-1.9-8.7-4.1-12-5-3.3-.8-9.9-1.5-14.7-1.5-4.9 0-11.2.5-14 1.1-2.9.6-8 2-11.3 3.1-3.3 1.1-11 4.3-17 7.2-6 2.9-20.2 10.6-31.5 17.1-11.3 6.6-24.4 13.7-29.3 15.7-4.8 2.1-12 4.7-15.9 5.7-4 1.1-10.2 2.2-13.8 2.6-4.4.4-8.9.1-14-1-4.1-.8-10.2-3-13.4-4.8-3.3-1.8-9-6.1-12.6-9.7-3.7-3.7-11.1-13.2-17-21.9-6.4-9.4-12.7-17.4-16-20.4-3-2.7-7.7-6-10.5-7.3-3.6-1.8-7.2-2.6-13-2.9-4.7-.3-10.1.1-13 .8Z" class="s0" paint-order="fill"/>
    </clipPath>
    <clipPath id="p">
      <path fill="url(#h)" d="M241.046 155.542c-2.8.7-8.4 2.9-12.5 4.8-4.1 2-11.1 6.3-15.5 9.6s-11.1 9.3-15 13.5c-3.9 4.1-10.7 12.6-15.2 18.9-4.5 6.3-10.5 15.5-13.4 20.4-2.8 4.9-7.3 13.9-9.9 20-2.6 6.1-8.7 21.8-13.5 35-4.8 13.2-10.8 28.7-13.4 34.5-2.6 5.8-7.5 15.2-11 21-3.5 5.8-13.4 20.9-22.1 33.5-8.7 12.6-18.599 27.6-21.899 33.2-3.4 5.7-8.3 14.7-11 20-2.7 5.4-6.9 15-9.4 21.3-2.5 6.3-5.7 16-7.1 21.5-1.4 5.5-3.2 14-4 19-.9 5-2.1 14.6-2.7 21.5-.7 7.1-.9 18.3-.5 26 .3 7.4 1.3 17.5 2.1 22.5.9 5 2.5 12.1 3.6 16 1.1 3.9 3.4 10.8 5.1 15.5 1.7 4.7 6.3 15.2 10.3 23.5 4 8.2 9.9 18.8 13.1 23.5 3.1 4.7 8.4 12.1 11.699 16.5 3.3 4.4 12.1 14.1 19.6 21.5 7.5 7.5 18.8 17.4 25.1 22.2 6.3 4.7 16.9 12.1 23.5 16.3 6.6 4.2 18.3 10.8 26 14.6 7.7 3.8 20.8 9.1 29 11.8 8.2 2.7 24.9 7.2 37 10 12.1 2.8 26.3 5.7 31.5 6.5 5.2.9 16.3 2.1 24.5 2.8 8.2.6 26 1.2 39.5 1.2s31.9-.5 41-1.2c9.1-.7 20.9-2 26.3-2.8 5.3-.8 15.2-2.6 21.9-4 6.8-1.4 17.3-3.8 23.3-5.4 6-1.6 15.5-4.5 21-6.3 5.5-1.9 15-5.5 21-7.9 6-2.5 14.7-6.4 19.3-8.7 4.5-2.2 13.7-7.8 20.4-12.4 6.8-4.5 16.6-11.6 21.8-15.8 5.2-4.2 14.2-12.6 20-18.6 5.8-6 13.5-15.2 17.2-20.4 3.7-5.2 9.4-14.6 12.7-20.9 3.3-6.3 7.6-16.2 9.5-22 1.9-5.8 4.3-14.3 5.3-19 1.4-6.7 1.8-12.8 1.7-29.5 0-18.8-.3-22.2-2.6-32.5-1.4-6.3-4.2-16-6.3-21.5-2-5.5-6.5-15.9-10-23s-8.9-16.8-12.1-21.5c-3.1-4.7-8.4-12.1-11.8-16.5-3.3-4.4-9-11.4-12.7-15.5-3.6-4.1-10.7-12-15.8-17.5-5.1-5.5-12-13.6-15.3-18-3.3-4.4-8.5-13-11.4-19-3-6.1-6.3-14.6-7.5-19-1.7-6.2-2.1-11-2.2-21.5 0-9.3.5-16 1.7-21.5 1-4.4 5.1-18.4 9.1-31 4-12.6 8.1-27.7 9-33.5 1.3-7.6 1.6-13.1 1.2-20-.3-5.2-1.4-12-2.3-15-.9-3-3-8.2-4.7-11.5-1.7-3.4-6.1-9.2-10.1-13.3-3.9-4.1-9.8-8.9-13.1-10.7-3.3-1.9-8.7-4.1-12-5-3.3-.8-9.9-1.5-14.7-1.5-4.9 0-11.2.5-14 1.1-2.9.6-8 2-11.3 3.1-3.3 1.1-11 4.3-17 7.2-6 2.9-20.2 10.6-31.5 17.1-11.3 6.6-24.4 13.7-29.3 15.7-4.8 2.1-12 4.7-15.9 5.7-4 1.1-10.2 2.2-13.8 2.6-4.4.4-8.9.1-14-1-4.1-.8-10.2-3-13.4-4.8-3.3-1.8-9-6.1-12.6-9.7-3.7-3.7-11.1-13.2-17-21.9-6.4-9.4-12.7-17.4-16-20.4-3-2.7-7.7-6-10.5-7.3-3.6-1.8-7.2-2.6-13-2.9-4.7-.3-10.1.1-13 .8Z" class="s0" paint-order="fill"/>
    </clipPath>
    <clipPath id="r"/>
    <clipPath id="i">
      <rect width="105.756" height="138.838" x="284.296" y="196.306" fill="#64b400" stroke="#000" stroke-linecap="round" stroke-linejoin="round" stroke-width="0" rx="31.727" ry="41.651"/>
    </clipPath>
  </defs>
  <g clip-path="url(#i)" filter="none" transform="matrix(4.727859 0 0 3.601325 -1344.111572 -706.962463)">
    <path fill="url(#j)" d="M292.076 346.493c-.864-.216-2.594-.895-3.86-1.482-1.266-.618-3.428-1.946-4.787-2.965-1.358-1.019-3.428-2.872-4.632-4.169-1.204-1.266-3.304-3.891-4.694-5.836-1.39-1.946-3.243-4.787-4.138-6.3-.865-1.514-2.255-4.293-3.058-6.177-.803-1.884-2.686-6.732-4.168-10.809-1.483-4.076-3.336-8.863-4.14-10.654-.801-1.791-2.316-4.694-3.396-6.485-1.081-1.791-4.138-6.454-6.824-10.346-2.688-3.891-5.744-8.523-6.764-10.252-1.049-1.761-2.563-4.54-3.397-6.177-.833-1.668-2.132-4.632-2.902-6.578-.772-1.945-1.762-4.941-2.193-6.639-.434-1.699-.99-4.324-1.235-5.868-.28-1.544-.65-4.509-.834-6.64-.218-2.192-.277-5.651-.154-8.029.093-2.285.402-5.404.649-6.949.277-1.544.77-3.736 1.111-4.941.338-1.204 1.049-3.335 1.573-4.786.527-1.452 1.946-4.694 3.181-7.258 1.238-2.532 3.059-5.806 4.047-7.257.958-1.451 2.595-3.737 3.612-5.096 1.02-1.358 3.738-4.354 6.054-6.639 2.316-2.316 5.806-5.374 7.752-6.856 1.946-1.451 5.218-3.737 7.256-5.034 2.039-1.297 5.652-3.335 8.03-4.509 2.378-1.173 6.423-2.81 8.956-3.646 2.532-.833 7.689-2.221 11.426-3.087 3.737-.864 8.122-1.758 9.728-2.005 1.606-.278 5.034-.65 7.566-.866 2.532-.184 8.029-.37 12.198-.37 4.169 0 9.852.153 12.662.37 2.81.216 6.454.619 8.122.866 1.637.247 4.694.802 6.763 1.233 2.1.433 5.343 1.174 7.196 1.669 1.853.494 4.786 1.388 6.485 1.946 1.698.586 4.632 1.698 6.485 2.439 1.853.772 4.54 1.976 5.96 2.687 1.39.679 4.231 2.408 6.3 3.829 2.1 1.39 5.127 3.582 6.733 4.879 1.606 1.297 4.385 3.892 6.176 5.745 1.791 1.852 4.169 4.694 5.312 6.299 1.142 1.606 2.903 4.509 3.922 6.455 1.019 1.945 2.347 5.003 2.934 6.794.586 1.791 1.328 4.416 1.636 5.867.433 2.07.556 3.953.525 9.111 0 5.806-.092 6.856-.803 10.036-.432 1.946-1.297 4.942-1.945 6.64-.618 1.699-2.007 4.91-3.088 7.103-1.081 2.193-2.749 5.188-3.737 6.64-.957 1.451-2.594 3.736-3.644 5.095-1.019 1.359-2.78 3.521-3.922 4.787-1.112 1.266-3.305 3.706-4.88 5.404-1.575 1.699-3.705 4.2-4.724 5.559-1.02 1.359-2.625 4.015-3.521 5.868-.927 1.883-1.946 4.508-2.316 5.867-.525 1.915-.649 3.397-.68 6.64 0 2.872.155 4.941.525 6.64.309 1.358 1.575 5.682 2.811 9.573 1.235 3.891 2.501 8.554 2.779 10.345.402 2.348.494 4.046.371 6.177-.093 1.606-.433 3.706-.711 4.632-.278.927-.926 2.533-1.451 3.552-.525 1.05-1.884 2.841-3.119 4.107-1.205 1.266-3.027 2.749-4.046 3.304-1.019.587-2.687 1.267-3.706 1.544-1.019.248-3.057.464-4.539.464-1.514 0-3.459-.155-4.324-.34-.895-.185-2.47-.618-3.489-.957-1.02-.34-3.397-1.328-5.25-2.224-1.853-.895-6.239-3.273-9.728-5.281-3.49-2.038-7.536-4.231-9.049-4.848-1.482-.649-3.706-1.452-4.91-1.76-1.235-.34-3.15-.68-4.262-.803-1.359-.124-2.748-.031-4.323.308-1.266.247-3.15.927-4.138 1.483-1.02.556-2.78 1.884-3.892 2.995-1.142 1.143-3.427 4.077-5.25 6.764-1.976 2.902-3.922 5.373-4.941 6.299-.926.834-2.378 1.853-3.242 2.255-1.112.556-2.224.803-4.015.895-1.451.093-3.119-.03-4.015-.247Z" class="s0" filter="none" paint-order="fill" transform="rotate(180 321.0456408 254.27968085)"/>
    <path fill="url(#k)" stroke="#ed9ab5" stroke-width="3.23812" d="M352.426 262.428C495.403 324.664 8.614 483.482 152.295 714.674l-4.375 61.15 134.871 15.655 261.313-12.042 162.568-140.892-3.613-169.793-97.541-173.406-25.288-118.013-73.457-49.372-154.347 134.467Z" clip-path="url(#l)" transform="matrix(-.308821 0 0 .308821 424.454926 114.031044)"/>
    <path fill="url(#m)" stroke="#e2265c" stroke-width="3.23812" d="M451.407 351.716c-52.289 190.753-436.45 265.867-261.176 369.198l106.536 112.432 243.931 20.711 128.87-147.279 27.615-204.81-92.05-158.786-153.726 8.534Z" clip-path="url(#n)" transform="matrix(-.308821 0 0 .308821 424.454926 114.031044)"/>
    <path fill="url(#o)" stroke="#ed9ab5" stroke-width="3.23812" d="M457.923 430.503C463.257 670.81 19.963 684.859 225.337 721.7l-64.251 190.545 170.423-22.876 288.233-161.273 26.307-202.45-25.163-122.384-162.963 27.241Z" clip-path="url(#p)" transform="matrix(-.308821 0 0 .308821 424.454926 114.031044)"/>
    <path fill="url(#q)" d="M241.046 155.542c-2.8.7-8.4 2.9-12.5 4.8-4.1 2-11.1 6.3-15.5 9.6s-11.1 9.3-15 13.5c-3.9 4.1-10.7 12.6-15.2 18.9-4.5 6.3-10.5 15.5-13.4 20.4-2.8 4.9-7.3 13.9-9.9 20-2.6 6.1-8.7 21.8-13.5 35-4.8 13.2-10.8 28.7-13.4 34.5-2.6 5.8-7.5 15.2-11 21-3.5 5.8-13.4 20.9-22.1 33.5-8.7 12.6-18.599 27.6-21.899 33.2-3.4 5.7-8.3 14.7-11 20-2.7 5.4-6.9 15-9.4 21.3-2.5 6.3-5.7 16-7.1 21.5-1.4 5.5-3.2 14-4 19-.9 5-2.1 14.6-2.7 21.5-.7 7.1-.9 18.3-.5 26 .3 7.4 1.3 17.5 2.1 22.5.9 5 2.5 12.1 3.6 16 1.1 3.9 3.4 10.8 5.1 15.5 1.7 4.7 6.3 15.2 10.3 23.5 4 8.2 9.9 18.8 13.1 23.5 3.1 4.7 8.4 12.1 11.699 16.5 3.3 4.4 12.1 14.1 19.6 21.5 7.5 7.5 18.8 17.4 25.1 22.2 6.3 4.7 16.9 12.1 23.5 16.3 6.6 4.2 18.3 10.8 26 14.6 7.7 3.8 20.8 9.1 29 11.8 8.2 2.7 24.9 7.2 37 10 12.1 2.8 26.3 5.7 31.5 6.5 5.2.9 16.3 2.1 24.5 2.8 8.2.6 26 1.2 39.5 1.2s31.9-.5 41-1.2c9.1-.7 20.9-2 26.3-2.8 5.3-.8 15.2-2.6 21.9-4 6.8-1.4 17.3-3.8 23.3-5.4 6-1.6 15.5-4.5 21-6.3 5.5-1.9 15-5.5 21-7.9 6-2.5 14.7-6.4 19.3-8.7 4.5-2.2 13.7-7.8 20.4-12.4 6.8-4.5 16.6-11.6 21.8-15.8 5.2-4.2 14.2-12.6 20-18.6 5.8-6 13.5-15.2 17.2-20.4 3.7-5.2 9.4-14.6 12.7-20.9 3.3-6.3 7.6-16.2 9.5-22 1.9-5.8 4.3-14.3 5.3-19 1.4-6.7 1.8-12.8 1.7-29.5 0-18.8-.3-22.2-2.6-32.5-1.4-6.3-4.2-16-6.3-21.5-2-5.5-6.5-15.9-10-23s-8.9-16.8-12.1-21.5c-3.1-4.7-8.4-12.1-11.8-16.5-3.3-4.4-9-11.4-12.7-15.5-3.6-4.1-10.7-12-15.8-17.5-5.1-5.5-12-13.6-15.3-18-3.3-4.4-8.5-13-11.4-19-3-6.1-6.3-14.6-7.5-19-1.7-6.2-2.1-11-2.2-21.5 0-9.3.5-16 1.7-21.5 1-4.4 5.1-18.4 9.1-31 4-12.6 8.1-27.7 9-33.5 1.3-7.6 1.6-13.1 1.2-20-.3-5.2-1.4-12-2.3-15-.9-3-3-8.2-4.7-11.5-1.7-3.4-6.1-9.2-10.1-13.3-3.9-4.1-9.8-8.9-13.1-10.7-3.3-1.9-8.7-4.1-12-5-3.3-.8-9.9-1.5-14.7-1.5-4.9 0-11.2.5-14 1.1-2.9.6-8 2-11.3 3.1-3.3 1.1-11 4.3-17 7.2-6 2.9-20.2 10.6-31.5 17.1-11.3 6.6-24.4 13.7-29.3 15.7-4.8 2.1-12 4.7-15.9 5.7-4 1.1-10.2 2.2-13.8 2.6-4.4.4-8.9.1-14-1-4.1-.8-10.2-3-13.4-4.8-3.3-1.8-9-6.1-12.6-9.7-3.7-3.7-11.1-13.2-17-21.9-6.4-9.4-12.7-17.4-16-20.4-3-2.7-7.7-6-10.5-7.3-3.6-1.8-7.2-2.6-13-2.9-4.7-.3-10.1.1-13 .8Z" class="s0" clip-path="url(#r)" paint-order="fill" transform="matrix(-.308821 0 0 .308821 424.454926 114.031044)"/>
  </g>
</svg>