<!--
 * GNU General Public License, version 2.0.
 *
 * Copyright (c) 2025 Tijme Gommers (@tijme).
 *
 * This source code file is part of Dittobytes. Dittobytes is 
 * licensed under GNU General Public License, version 2.0, and 
 * you are free to use, modify, and distribute this file under 
 * its terms. However, any modified versions of this file must 
 * include this same license and copyright notice.
-->
<svg xmlns="http://www.w3.org/2000/svg" viewBox="300.79 343.76 422.46 103.54">
    <path fill="#ec0545" d="M332.00342917 344.1h13.74849v62.27040167h-13.74849v-3.427515c-3.29891334 3.04355333-7.54047 4.87502166-12.16754 4.87502166-10.51695167 0-19.04207667-9.45168-19.04207667-21.11107833s8.525125-21.11107833 19.04207667-21.11107833c4.62707 0 8.86862666 1.83232 12.16754 4.87417V344.1zm0 42.60683c0-5.01771667-3.563665-9.086245-8.37559334-9.086245s-8.71239833 4.06851667-8.71239833 9.086245c0 5.01858 3.90047 9.08709667 8.71239833 9.08709667s8.37559334-4.06938 8.37559334-9.08709667z"/>
    <path fill="#c7003b" d="M353.3174375 351.62617833c0-4.34152833 3.41056333-7.86217833 7.61751667-7.86217833 4.208085 0 7.61864833 3.52065 7.61864833 7.86217833 0 4.34239167-3.41056333 7.86304167-7.61864833 7.86304167-4.20695334-.00001167-7.61751667-3.52066167-7.61751667-7.86304167z"/>
    <path fill="#ec0545" d="M354.0229675 406.35184v-39.54134333h13.74849V406.35184h-13.74849zm44.95608833-9.94733833v11.40818c-8.04931166 0-20.68327333-1.69773334-20.68327333-15.46232334V378.92857h-4.33797v-12.12311333h4.33797V354.936h13.74763833v35.00256667c.00001167 2.35554666 1.27775667 6.465935 6.935635 6.465935z"/>
    <path fill="#c7003b" d="M394.6604525 374.650835c0-4.34138833 3.41056333-7.86217833 7.61864833-7.86217833 4.20695334 0 7.61751667 3.52079 7.61751667 7.86217833 0 4.34239167-3.41056333 7.86233-7.61751667 7.86233-4.208085 0-7.61864833-3.51993833-7.61864833-7.86233z"/>
    <path fill="#ec0545" d="M438.1899875 396.40450167v11.40818c-8.04931167 0-20.68327333-1.69773334-20.68327333-15.46232334V378.92857h-4.33797v-12.12311333h4.33797V354.936h13.74763833v35.00256667c.00001167 2.35554666 1.27775667 6.465935 6.935635 6.465935z"/>
    <path fill="#c7003b" d="M433.87138417 374.650835c0-4.34138833 3.41056333-7.86217833 7.61864833-7.86217833 4.20695333 0 7.61751667 3.52079 7.61751667 7.86217833 0 4.34239167-3.41056334 7.86233-7.61751667 7.86233-4.208085 0-7.61864833-3.51993833-7.61864833-7.86233z"/>
    <path fill="#ec0545" d="M498.90300583 386.58741c0 11.728185-9.140215 21.34207833-23.136225 21.34207833-13.99543833 0-23.13509333-9.61389333-23.13509333-21.34207833 0-11.72833667 9.13964333-21.23541 23.13509333-21.23541 13.99601 0 23.136225 9.50707333 23.136225 21.23541zm-14.35033833.05283833c0-5.07312166-3.93351-9.18607666-8.78588667-9.18607666-4.851805 0-8.785315 4.112955-8.785315 9.18607666 0 5.07411334 3.93351 9.18706834 8.785315 9.18706834 4.85237667 0 8.78588667-4.112955 8.78588667-9.18706834zm65.74450167.06573c0 11.65939834-8.52583667 21.11107834-19.04193667 21.11107834-4.62793333 0-8.867775-1.83145667-12.16839167-4.87417v3.427515H505.3390625V344.1h13.74777833v26.36905833c3.30061667-3.04270166 7.54047-4.87417 12.16839167-4.87417 10.5161 0 19.041085 9.45168 19.04193667 21.11109zm-14.121625 0c0-5.01771666-3.90047-9.086245-8.71239834-9.086245s-8.376305 4.06851667-8.376305 9.086245c0 5.01858 3.56437667 9.08709667 8.376305 9.08709667 4.81121667 0 8.71239834-4.06938 8.71239834-9.08709667zM600.67273917 366.78l-17.29036167 33.22992167-3.28295333 6.31569166-9.30029334 17.87256334h-13.74821l11.896815-23.50111167L550.61374417 366.78h16.17382666l9.59936834 19.214965L586.1161925 366.78h14.55654667zm27.50162333 29.62450167v11.40818c-8.04931167 0-20.68327333-1.69773334-20.68327333-15.46232334V378.92857h-4.33797v-12.12311333h4.33797V354.936h13.74763833v35.00256667c.00001167 2.35554666 1.27775667 6.465935 6.935635 6.465935z"/>
    <path fill="#c7003b" d="M623.85575917 374.650835c0-4.34138833 3.41056333-7.86217833 7.61864833-7.86217833 4.20695333 0 7.61751667 3.52079 7.61751667 7.86217833 0 4.34239167-3.41056334 7.86233-7.61751667 7.86233-4.208085 0-7.61864833-3.51993833-7.61864833-7.86233z"/>
    <path fill="#ec0545" d="M671.95385583 391.98310333h13.14209167c0 13.836795-14.68615167 15.826195-20.75988833 15.826195s-21.55199667-3.79295-21.55199667-21.02620333S656.15202083 365.352 664.1907975 365.352c12.421185 0 18.23628333 6.40556 20.16914667 15.49507167.54203333 2.523605.78471166 5.24871666.78471166 8.09489333h-28.620375c0 6.477905 3.38805834 9.01745833 8.26464334 9.01745833 4.875745 0 7.16493166-2.74121166 7.16493166-5.97632zm-15.099455-11.13602h15.40620667l-.08915667-.05625666c0-2.911685-2.19917833-6.42150834-7.60925666-6.42150834-5.401795 0-7.70693 3.86600667-7.70779334 6.477765zm66.39516334 12.09874167c0 10.836105-9.973635 14.876855-18.32828667 14.876855s-15.39909-4.54804-15.39909-4.54804l4.95833333-9.866675s5.45679167 4.00885333 10.81672667 4.00885333c2.23591667 0 4.28157333-1.376165 4.28157333-3.00582333 0-6.13753-17.12573333-.81832333-17.12573333-14.72233 0-11.03263 9.93204333-14.336665 17.20149667-14.336665 4.08959833 0 9.32479333 1.04333833 12.39355833 2.54382333l-4.58292333 9.09535667s-4.01839667-2.00520833-7.36059334-2.00520833c-2.86539166 0-4.20581 1.44153333-4.20581 2.85286166 0 4.68433 17.35132 1.099735 17.35074834 15.10699167z"/>
    <path fill="#e10145" d="M365.022 434.523h3.245v1.104h-3.245v7.396h-1.104v-7.396h-3.229v-1.104h3.229v-3.403h1.104Z" style="text-wrap-mode:nowrap"/>
    <path fill="#be003b" d="M379.537 443.023v-12.495h1.904v12.495Zm4.234 0v-7.803h1.802l.017 1.428q.306-.697.994-1.164.689-.468 1.658-.468 1.258 0 1.887.519.629.518.841 1.47.213.952.213 2.261v3.757h-1.836v-3.706q0-1.36-.264-2.074-.263-.714-1.215-.714-.493 0-1.02.306t-.884.884q-.357.578-.357 1.428v3.876Zm20.273 0-3.009-5.831-.782-1.768-.357 1.768-1.156 5.831h-1.887l2.584-12.495h.204l3.434 6.749 1.02 2.261 1.02-2.261 3.366-6.749h.187l2.686 12.495h-1.87l-1.258-5.831-.374-1.768-.68 1.768-3.026 5.831Zm12.494.17q-1.462 0-2.38-.569-.918-.57-1.343-1.505-.425-.935-.425-1.989 0-1.275.518-2.193.519-.918 1.437-1.419.918-.502 2.074-.502 1.853 0 2.703 1.029.85 1.028.85 2.762 0 .459-.051.952h-5.61q.187 1.054.756 1.505.57.45 1.522.45.918 0 1.445-.17t.867-.34l.561 1.309q-.34.221-1.054.451-.714.229-1.87.229Zm-2.227-4.709h3.876q.017-1.105-.493-1.513-.51-.408-1.326-.408-.85 0-1.386.451-.535.45-.671 1.47Zm7.412 4.539v-7.803h1.836v1.411q.391-.833 1.122-1.224.731-.391 1.632-.391 1.156.017 1.751.408.595.391.816 1.037.374-.663 1.122-1.054.748-.391 1.581-.391 1.275 0 1.896.485.62.484.816 1.394.195.909.195 2.218v3.91h-1.853v-3.927q0-1.309-.263-1.938-.264-.629-1.097-.629-1.122 0-1.649.748-.527.748-.527 1.87v3.876h-1.836v-4.199q0-.731-.059-1.241-.06-.51-.357-.782-.298-.272-1.012-.272-.595 0-1.113.357-.519.357-.833.944-.315.586-.315 1.317v3.876Zm18.581.17q-1.224 0-2.151-.544-.926-.544-1.436-1.479-.51-.935-.51-2.074 0-1.122.501-2.048.502-.927 1.42-1.479.918-.553 2.176-.553t2.176.553q.918.552 1.411 1.479.493.926.493 2.048 0 1.139-.502 2.074-.501.935-1.419 1.479t-2.159.544Zm.051-1.496q1.02 0 1.572-.748.553-.748.553-1.819 0-.731-.272-1.317-.272-.587-.774-.944-.501-.357-1.181-.357-.663 0-1.139.357t-.74.944q-.263.586-.263 1.317 0 .714.289 1.301.289.586.79.926.502.34 1.165.34Zm5.793 1.326v-7.803h1.836v1.53q.272-.765.876-1.249.603-.485 1.402-.485.544 0 .748.102l-.255 1.853q-.153-.102-.663-.102-.425 0-.918.187-.493.187-.841.655-.349.467-.349 1.3v4.012Zm6.87 4.284 1.683-4.046-3.23-8.041h2.074l1.666 4.964.374 1.207.374-1.207 1.751-4.964h2.006l-4.794 12.087Zm15.69-4.114q-1.224 0-2.15-.544-.927-.544-1.437-1.479t-.51-2.074q0-1.122.502-2.048.501-.927 1.419-1.479.918-.553 2.176-.553t2.176.553q.918.552 1.411 1.479.493.926.493 2.048 0 1.139-.501 2.074-.502.935-1.42 1.479-.918.544-2.159.544Zm.051-1.496q1.02 0 1.573-.748.552-.748.552-1.819 0-.731-.272-1.317-.272-.587-.773-.944-.502-.357-1.182-.357-.663 0-1.139.357t-.739.944q-.264.586-.264 1.317 0 .714.289 1.301.289.586.791.926.501.34 1.164.34Zm6.373 1.326v-6.341h-1.258v-1.462h1.258v-1.683q0-1.513.731-2.363.731-.85 2.176-.85.459 0 .824.136.366.136.485.187l-.357 1.734q-.085-.102-.332-.246-.246-.145-.569-.145-.238 0-.502.094-.263.093-.45.408-.187.314-.204.977v1.751h1.836v1.462h-1.836v6.341Zm9.928 0v-12.495h1.904v12.495Zm4.234 0v-7.803h1.802l.017 1.428q.306-.697.994-1.164.689-.468 1.658-.468 1.258 0 1.887.519.629.518.841 1.47.213.952.213 2.261v3.757h-1.836v-3.706q0-1.36-.264-2.074-.263-.714-1.215-.714-.493 0-1.02.306t-.884.884q-.357.578-.357 1.428v3.876Zm9.776-3.451v-1.632h5.831v1.632Zm14.664 3.451-3.009-5.831-.782-1.768-.357 1.768-1.156 5.831h-1.887l2.584-12.495h.204l3.434 6.749 1.02 2.261 1.02-2.261 3.366-6.749h.187l2.686 12.495h-1.87l-1.258-5.831-.374-1.768-.68 1.768-3.026 5.831Zm12.494.17q-1.462 0-2.38-.569-.918-.57-1.343-1.505-.425-.935-.425-1.989 0-1.275.519-2.193.518-.918 1.436-1.419.918-.502 2.074-.502 1.853 0 2.703 1.029.85 1.028.85 2.762 0 .459-.051.952h-5.61q.187 1.054.757 1.505.569.45 1.521.45.918 0 1.445-.17t.867-.34l.561 1.309q-.34.221-1.054.451-.714.229-1.87.229Zm-2.227-4.709h3.876q.017-1.105-.493-1.513-.51-.408-1.326-.408-.85 0-1.385.451-.536.45-.672 1.47Zm7.412 4.539v-7.803h1.836v1.411q.391-.833 1.122-1.224.731-.391 1.632-.391 1.156.017 1.751.408.595.391.816 1.037.374-.663 1.122-1.054.748-.391 1.581-.391 1.275 0 1.896.485.62.484.816 1.394.195.909.195 2.218v3.91h-1.853v-3.927q0-1.309-.263-1.938-.264-.629-1.097-.629-1.122 0-1.649.748-.527.748-.527 1.87v3.876h-1.836v-4.199q0-.731-.059-1.241-.06-.51-.357-.782-.298-.272-1.012-.272-.595 0-1.113.357-.519.357-.833.944-.315.586-.315 1.317v3.876Zm18.581.17q-1.224 0-2.151-.544-.926-.544-1.436-1.479-.51-.935-.51-2.074 0-1.122.501-2.048.502-.927 1.42-1.479.918-.553 2.176-.553t2.176.553q.918.552 1.411 1.479.493.926.493 2.048 0 1.139-.502 2.074-.501.935-1.419 1.479t-2.159.544Zm.051-1.496q1.02 0 1.572-.748.553-.748.553-1.819 0-.731-.272-1.317-.272-.587-.774-.944-.501-.357-1.181-.357-.663 0-1.139.357t-.74.944q-.263.586-.263 1.317 0 .714.289 1.301.289.586.79.926.502.34 1.165.34Zm5.794 1.326v-7.803h1.836v1.53q.272-.765.875-1.249.604-.485 1.403-.485.544 0 .748.102l-.255 1.853q-.153-.102-.663-.102-.425 0-.918.187-.493.187-.842.655-.348.467-.348 1.3v4.012Zm6.869 4.284 1.683-4.046-3.23-8.041h2.074l1.666 4.964.374 1.207.374-1.207 1.751-4.964h2.006l-4.794 12.087Zm12.172-4.284v-12.495h3.009q1.683 0 2.864.374 1.182.374 1.947.995.765.62 1.198 1.411.434.79.604 1.632.17.841.17 1.623 0 1.173-.332 2.321-.331 1.147-1.096 2.082-.765.935-2.049 1.496-1.283.561-3.204.561Zm1.904-1.683h1.411q1.258 0 2.116-.391.859-.391 1.377-1.062.519-.672.748-1.513.23-.842.23-1.726 0-1.207-.425-2.218-.425-1.012-1.403-1.624-.977-.612-2.643-.612h-1.411Zm13.36 1.853q-1.462 0-2.38-.569-.918-.57-1.343-1.505-.425-.935-.425-1.989 0-1.275.519-2.193.518-.918 1.436-1.419.918-.502 2.074-.502 1.853 0 2.703 1.029.85 1.028.85 2.762 0 .459-.051.952h-5.61q.187 1.054.757 1.505.569.45 1.521.45.918 0 1.445-.17t.867-.34l.561 1.309q-.34.221-1.054.451-.714.229-1.87.229Zm-2.227-4.709h3.876q.017-1.105-.493-1.513-.51-.408-1.326-.408-.85 0-1.385.451-.536.45-.672 1.47Zm8.057 4.539v-6.307h-1.377v-1.496h1.377v-3.179l1.853-.408v3.587h1.802v1.496h-1.802v6.307Zm8.671.17q-1.462 0-2.38-.569-.918-.57-1.343-1.505-.425-.935-.425-1.989 0-1.275.518-2.193.519-.918 1.437-1.419.918-.502 2.074-.502 1.853 0 2.703 1.029.85 1.028.85 2.762 0 .459-.051.952h-5.61q.187 1.054.756 1.505.57.45 1.522.45.918 0 1.445-.17t.867-.34l.561 1.309q-.34.221-1.054.451-.714.229-1.87.229Zm-2.227-4.709h3.876q.017-1.105-.493-1.513-.51-.408-1.326-.408-.85 0-1.386.451-.535.45-.671 1.47Zm11.218 4.709q-1.139 0-2.065-.493-.927-.493-1.479-1.428-.553-.935-.553-2.244 0-1.224.502-2.125.501-.901 1.411-1.394.909-.493 2.099-.493.986 0 1.624.255.637.255.96.544l-.816 1.479q-.068-.085-.272-.255-.204-.17-.535-.314-.332-.145-.808-.145-1.122 0-1.674.68-.553.68-.553 1.751 0 1.241.587 1.947.586.705 1.64.705.561 0 1.054-.161.493-.162.748-.349l.663 1.292q-.306.238-.969.493t-1.564.255Zm4.963-.17v-6.307h-1.377v-1.496h1.377v-3.179l1.853-.408v3.587h1.802v1.496h-1.802v6.307Zm5.25 0v-7.803h1.904v7.803Zm.952-9.265q-.527 0-.875-.357-.349-.357-.349-.884 0-.476.349-.816.348-.34.875-.34t.876.34q.348.34.348.816 0 .527-.348.884-.349.357-.876.357Zm6.886 9.435q-1.224 0-2.151-.544-.926-.544-1.436-1.479-.51-.935-.51-2.074 0-1.122.501-2.048.502-.927 1.42-1.479.918-.553 2.176-.553t2.176.553q.918.552 1.411 1.479.493.926.493 2.048 0 1.139-.502 2.074-.501.935-1.419 1.479t-2.159.544Zm.051-1.496q1.02 0 1.572-.748.553-.748.553-1.819 0-.731-.272-1.317-.272-.587-.774-.944-.501-.357-1.181-.357-.663 0-1.139.357t-.74.944q-.263.586-.263 1.317 0 .714.289 1.301.289.586.79.926.502.34 1.165.34Zm5.816 1.326v-7.803h1.802l.017 1.428q.306-.697.995-1.164.688-.468 1.657-.468 1.258 0 1.887.519.629.518.842 1.47.212.952.212 2.261v3.757h-1.836v-3.706q0-1.36-.263-2.074-.264-.714-1.216-.714-.493 0-1.02.306t-.884.884q-.357.578-.357 1.428v3.876Z" style="text-wrap-mode:nowrap"/>
    <path fill="#e10145" d="M660.181 434.523h3.246v1.104h-3.246v7.396h-1.104v-7.396h-3.229v-1.104h3.229v-3.403h1.104Z" style="text-wrap-mode:nowrap"/>
</svg>
