<!--
 * GNU General Public License, version 2.0.
 *
 * Copyright (c) 2025 Tijme Gommers (@tijme).
 *
 * This source code file is part of Dittobytes. Dittobytes is 
 * licensed under GNU General Public License, version 2.0, and 
 * you are free to use, modify, and distribute this file under 
 * its terms. However, any modified versions of this file must 
 * include this same license and copyright notice.
-->
<svg xmlns="http://www.w3.org/2000/svg" xmlns:xlink="http://www.w3.org/1999/xlink" preserveAspectRatio="xMidYMin" viewBox="311.79 346.76 427.46 80.78">
  <defs>
    <path id="i" fill="#00ff15" stroke-width="0" d="M666.337 461.118c0-189.203-144.329-342.587-322.355-342.587-178.028 0-322.355 153.384-322.355 342.587 0 189.204 144.327 342.587 322.355 342.587 178.026 0 322.355-153.383 322.355-342.587Zm-334.653 28.638c-50.654 0-91.717-43.64-91.717-97.474 0-53.837 41.063-97.477 91.717-97.477 50.657 0 91.72 43.64 91.72 97.477 0 53.834-41.063 97.474-91.72 97.474Z" style="transform-box:fill-box" transform-origin="50% 50%"/>
  </defs>
  <defs>
    <linearGradient id="b">
      <stop offset="0" stop-color="#9e0044"/>
      <stop offset="1" stop-color="#4e0144"/>
    </linearGradient>
    <linearGradient id="e">
      <stop offset="0" stop-color="#9e0044"/>
      <stop offset="1" stop-color="#4e0144"/>
    </linearGradient>
    <linearGradient id="d">
      <stop offset="0" stop-color="#f0074b"/>
      <stop offset="1" stop-color="#9d0046"/>
    </linearGradient>
    <linearGradient id="c">
      <stop offset="0" stop-color="#ff4667"/>
      <stop offset="1" stop-color="#d6004e"/>
    </linearGradient>
    <linearGradient id="a">
      <stop offset="0" stop-color="#b8204a"/>
      <stop offset=".546" stop-color="#860447"/>
      <stop offset="1" stop-color="#dc0b45"/>
    </linearGradient>
    <linearGradient id="j" x1="323.273" x2="323.273" y1="344.1" y2="407.818" gradientTransform="matrix(-.007432 -.999974 6.958792 -.051719 -2096.622468 731.341451)" gradientUnits="userSpaceOnUse" href="#a"/>
    <linearGradient id="k" x1="360.936" x2="360.936" y1="343.764" y2="359.489" gradientTransform="matrix(.001801 -.999998 28.06466 .050528 -9352.958172 701.566053)" gradientUnits="userSpaceOnUse" href="#a"/>
    <linearGradient id="l" x1="376.501" x2="376.501" y1="354.936" y2="407.813" gradientTransform="matrix(-.002133 -.999999 8.35924 -.017817 -2670.940974 760.329732)" gradientUnits="userSpaceOnUse" href="#a"/>
    <linearGradient id="m" x1="402.279" x2="402.279" y1="366.789" y2="382.513" gradientTransform="matrix(.001786 -.999999 28.265197 .050467 -10074.48249 749.168215)" gradientUnits="userSpaceOnUse" href="#a"/>
    <linearGradient id="n" x1="425.679" x2="425.679" y1="354.936" y2="407.813" gradientTransform="matrix(-.000559 -1 8.385506 -.004684 -2681.650275 799.638771)" gradientUnits="userSpaceOnUse" href="#a"/>
    <linearGradient id="o" x1="441.489" x2="441.489" y1="366.789" y2="382.513" gradientTransform="matrix(-.005245 -.999985 28.265198 -.148273 -10072.168834 877.240087)" gradientUnits="userSpaceOnUse" href="#a"/>
    <linearGradient id="p" x1="571.757" x2="571.757" y1="344.1" y2="424.198" gradientTransform="matrix(.004464 -.99999 5.518383 .024638 -1606.058489 959.803685)" gradientUnits="userSpaceOnUse" href="#a"/>
    <linearGradient id="q" x1="636.474" x2="636.474" y1="366.789" y2="382.513" gradientTransform="matrix(.000226 -.999999 28.132704 .006302 -10022.711439 1037.409476)" gradientUnits="userSpaceOnUse" href="#a"/>
    <linearGradient id="r" x1="688.017" x2="688.017" y1="365.352" y2="407.823" gradientTransform="matrix(-.001406 -.999999 10.431894 .000002 -3515.034539 1095.773534)" gradientUnits="userSpaceOnUse" href="#a"/>
    <linearGradient id="s" x1="339.305" x2="339.305" y1="206.399" y2="805.4" gradientTransform="matrix(-.308821 0 0 .308821 425.830271 98.047042)" gradientUnits="userSpaceOnUse" href="#b" spreadMethod="pad"/>
    <linearGradient id="t" x1="349.594" x2="349.594" y1="154.641" y2="753.642" gradientUnits="userSpaceOnUse" href="#c"/>
    <linearGradient id="f" x1="339.305" x2="339.305" y1="206.399" y2="805.4" gradientTransform="translate(-4.453537 -51.758141)" gradientUnits="userSpaceOnUse" href="#b" spreadMethod="pad"/>
    <linearGradient id="w" x1="388.289" x2="388.289" y1="310.447" y2="753.642" gradientUnits="userSpaceOnUse" href="#d"/>
    <linearGradient id="g" x1="339.305" x2="339.305" y1="206.399" y2="805.4" gradientTransform="translate(-4.453537 -51.758141)" gradientUnits="userSpaceOnUse" href="#b" spreadMethod="pad"/>
    <linearGradient id="z" x1="394.023" x2="394.023" y1="374.668" y2="753.642" gradientUnits="userSpaceOnUse" href="#e"/>
    <linearGradient id="h" x1="394.023" x2="394.023" y1="374.668" y2="753.642" gradientUnits="userSpaceOnUse" href="#e"/>
    <clipPath id="u">
      <path fill="url(#f)" fill-opacity=".52" d="M241.046 155.542c-2.8.7-8.4 2.9-12.5 4.8-4.1 2-11.1 6.3-15.5 9.6s-11.1 9.3-15 13.5c-3.9 4.1-10.7 12.6-15.2 18.9-4.5 6.3-10.5 15.5-13.4 20.4-2.8 4.9-7.3 13.9-9.9 20-2.6 6.1-8.7 21.8-13.5 35-4.8 13.2-10.8 28.7-13.4 34.5-2.6 5.8-7.5 15.2-11 21-3.5 5.8-13.4 20.9-22.1 33.5-8.7 12.6-18.599 27.6-21.899 33.2-3.4 5.7-8.3 14.7-11 20-2.7 5.4-6.9 15-9.4 21.3-2.5 6.3-5.7 16-7.1 21.5-1.4 5.5-3.2 14-4 19-.9 5-2.1 14.6-2.7 21.5-.7 7.1-.9 18.3-.5 26 .3 7.4 1.3 17.5 2.1 22.5.9 5 2.5 12.1 3.6 16 1.1 3.9 3.4 10.8 5.1 15.5 1.7 4.7 6.3 15.2 10.3 23.5 4 8.2 9.9 18.8 13.1 23.5 3.1 4.7 8.4 12.1 11.699 16.5 3.3 4.4 12.1 14.1 19.6 21.5 7.5 7.5 18.8 17.4 25.1 22.2 6.3 4.7 16.9 12.1 23.5 16.3 6.6 4.2 18.3 10.8 26 14.6 7.7 3.8 20.8 9.1 29 11.8 8.2 2.7 24.9 7.2 37 10 12.1 2.8 26.3 5.7 31.5 6.5 5.2.9 16.3 2.1 24.5 2.8 8.2.6 26 1.2 39.5 1.2s31.9-.5 41-1.2c9.1-.7 20.9-2 26.3-2.8 5.3-.8 15.2-2.6 21.9-4 6.8-1.4 17.3-3.8 23.3-5.4 6-1.6 15.5-4.5 21-6.3 5.5-1.9 15-5.5 21-7.9 6-2.5 14.7-6.4 19.3-8.7 4.5-2.2 13.7-7.8 20.4-12.4 6.8-4.5 16.6-11.6 21.8-15.8 5.2-4.2 14.2-12.6 20-18.6 5.8-6 13.5-15.2 17.2-20.4 3.7-5.2 9.4-14.6 12.7-20.9 3.3-6.3 7.6-16.2 9.5-22 1.9-5.8 4.3-14.3 5.3-19 1.4-6.7 1.8-12.8 1.7-29.5 0-18.8-.3-22.2-2.6-32.5-1.4-6.3-4.2-16-6.3-21.5-2-5.5-6.5-15.9-10-23s-8.9-16.8-12.1-21.5c-3.1-4.7-8.4-12.1-11.8-16.5-3.3-4.4-9-11.4-12.7-15.5-3.6-4.1-10.7-12-15.8-17.5-5.1-5.5-12-13.6-15.3-18-3.3-4.4-8.5-13-11.4-19-3-6.1-6.3-14.6-7.5-19-1.7-6.2-2.1-11-2.2-21.5 0-9.3.5-16 1.7-21.5 1-4.4 5.1-18.4 9.1-31 4-12.6 8.1-27.7 9-33.5 1.3-7.6 1.6-13.1 1.2-20-.3-5.2-1.4-12-2.3-15-.9-3-3-8.2-4.7-11.5-1.7-3.4-6.1-9.2-10.1-13.3-3.9-4.1-9.8-8.9-13.1-10.7-3.3-1.9-8.7-4.1-12-5-3.3-.8-9.9-1.5-14.7-1.5-4.9 0-11.2.5-14 1.1-2.9.6-8 2-11.3 3.1-3.3 1.1-11 4.3-17 7.2-6 2.9-20.2 10.6-31.5 17.1-11.3 6.6-24.4 13.7-29.3 15.7-4.8 2.1-12 4.7-15.9 5.7-4 1.1-10.2 2.2-13.8 2.6-4.4.4-8.9.1-14-1-4.1-.8-10.2-3-13.4-4.8-3.3-1.8-9-6.1-12.6-9.7-3.7-3.7-11.1-13.2-17-21.9-6.4-9.4-12.7-17.4-16-20.4-3-2.7-7.7-6-10.5-7.3-3.6-1.8-7.2-2.6-13-2.9-4.7-.3-10.1.1-13 .8Z" class="s0" paint-order="fill"/>
    </clipPath>
    <clipPath id="x">
      <path fill="url(#g)" fill-opacity=".52" d="M241.046 155.542c-2.8.7-8.4 2.9-12.5 4.8-4.1 2-11.1 6.3-15.5 9.6s-11.1 9.3-15 13.5c-3.9 4.1-10.7 12.6-15.2 18.9-4.5 6.3-10.5 15.5-13.4 20.4-2.8 4.9-7.3 13.9-9.9 20-2.6 6.1-8.7 21.8-13.5 35-4.8 13.2-10.8 28.7-13.4 34.5-2.6 5.8-7.5 15.2-11 21-3.5 5.8-13.4 20.9-22.1 33.5-8.7 12.6-18.599 27.6-21.899 33.2-3.4 5.7-8.3 14.7-11 20-2.7 5.4-6.9 15-9.4 21.3-2.5 6.3-5.7 16-7.1 21.5-1.4 5.5-3.2 14-4 19-.9 5-2.1 14.6-2.7 21.5-.7 7.1-.9 18.3-.5 26 .3 7.4 1.3 17.5 2.1 22.5.9 5 2.5 12.1 3.6 16 1.1 3.9 3.4 10.8 5.1 15.5 1.7 4.7 6.3 15.2 10.3 23.5 4 8.2 9.9 18.8 13.1 23.5 3.1 4.7 8.4 12.1 11.699 16.5 3.3 4.4 12.1 14.1 19.6 21.5 7.5 7.5 18.8 17.4 25.1 22.2 6.3 4.7 16.9 12.1 23.5 16.3 6.6 4.2 18.3 10.8 26 14.6 7.7 3.8 20.8 9.1 29 11.8 8.2 2.7 24.9 7.2 37 10 12.1 2.8 26.3 5.7 31.5 6.5 5.2.9 16.3 2.1 24.5 2.8 8.2.6 26 1.2 39.5 1.2s31.9-.5 41-1.2c9.1-.7 20.9-2 26.3-2.8 5.3-.8 15.2-2.6 21.9-4 6.8-1.4 17.3-3.8 23.3-5.4 6-1.6 15.5-4.5 21-6.3 5.5-1.9 15-5.5 21-7.9 6-2.5 14.7-6.4 19.3-8.7 4.5-2.2 13.7-7.8 20.4-12.4 6.8-4.5 16.6-11.6 21.8-15.8 5.2-4.2 14.2-12.6 20-18.6 5.8-6 13.5-15.2 17.2-20.4 3.7-5.2 9.4-14.6 12.7-20.9 3.3-6.3 7.6-16.2 9.5-22 1.9-5.8 4.3-14.3 5.3-19 1.4-6.7 1.8-12.8 1.7-29.5 0-18.8-.3-22.2-2.6-32.5-1.4-6.3-4.2-16-6.3-21.5-2-5.5-6.5-15.9-10-23s-8.9-16.8-12.1-21.5c-3.1-4.7-8.4-12.1-11.8-16.5-3.3-4.4-9-11.4-12.7-15.5-3.6-4.1-10.7-12-15.8-17.5-5.1-5.5-12-13.6-15.3-18-3.3-4.4-8.5-13-11.4-19-3-6.1-6.3-14.6-7.5-19-1.7-6.2-2.1-11-2.2-21.5 0-9.3.5-16 1.7-21.5 1-4.4 5.1-18.4 9.1-31 4-12.6 8.1-27.7 9-33.5 1.3-7.6 1.6-13.1 1.2-20-.3-5.2-1.4-12-2.3-15-.9-3-3-8.2-4.7-11.5-1.7-3.4-6.1-9.2-10.1-13.3-3.9-4.1-9.8-8.9-13.1-10.7-3.3-1.9-8.7-4.1-12-5-3.3-.8-9.9-1.5-14.7-1.5-4.9 0-11.2.5-14 1.1-2.9.6-8 2-11.3 3.1-3.3 1.1-11 4.3-17 7.2-6 2.9-20.2 10.6-31.5 17.1-11.3 6.6-24.4 13.7-29.3 15.7-4.8 2.1-12 4.7-15.9 5.7-4 1.1-10.2 2.2-13.8 2.6-4.4.4-8.9.1-14-1-4.1-.8-10.2-3-13.4-4.8-3.3-1.8-9-6.1-12.6-9.7-3.7-3.7-11.1-13.2-17-21.9-6.4-9.4-12.7-17.4-16-20.4-3-2.7-7.7-6-10.5-7.3-3.6-1.8-7.2-2.6-13-2.9-4.7-.3-10.1.1-13 .8Z" class="s0" paint-order="fill"/>
    </clipPath>
    <clipPath id="A">
      <path fill="url(#h)" d="M241.046 155.542c-2.8.7-8.4 2.9-12.5 4.8-4.1 2-11.1 6.3-15.5 9.6s-11.1 9.3-15 13.5c-3.9 4.1-10.7 12.6-15.2 18.9-4.5 6.3-10.5 15.5-13.4 20.4-2.8 4.9-7.3 13.9-9.9 20-2.6 6.1-8.7 21.8-13.5 35-4.8 13.2-10.8 28.7-13.4 34.5-2.6 5.8-7.5 15.2-11 21-3.5 5.8-13.4 20.9-22.1 33.5-8.7 12.6-18.599 27.6-21.899 33.2-3.4 5.7-8.3 14.7-11 20-2.7 5.4-6.9 15-9.4 21.3-2.5 6.3-5.7 16-7.1 21.5-1.4 5.5-3.2 14-4 19-.9 5-2.1 14.6-2.7 21.5-.7 7.1-.9 18.3-.5 26 .3 7.4 1.3 17.5 2.1 22.5.9 5 2.5 12.1 3.6 16 1.1 3.9 3.4 10.8 5.1 15.5 1.7 4.7 6.3 15.2 10.3 23.5 4 8.2 9.9 18.8 13.1 23.5 3.1 4.7 8.4 12.1 11.699 16.5 3.3 4.4 12.1 14.1 19.6 21.5 7.5 7.5 18.8 17.4 25.1 22.2 6.3 4.7 16.9 12.1 23.5 16.3 6.6 4.2 18.3 10.8 26 14.6 7.7 3.8 20.8 9.1 29 11.8 8.2 2.7 24.9 7.2 37 10 12.1 2.8 26.3 5.7 31.5 6.5 5.2.9 16.3 2.1 24.5 2.8 8.2.6 26 1.2 39.5 1.2s31.9-.5 41-1.2c9.1-.7 20.9-2 26.3-2.8 5.3-.8 15.2-2.6 21.9-4 6.8-1.4 17.3-3.8 23.3-5.4 6-1.6 15.5-4.5 21-6.3 5.5-1.9 15-5.5 21-7.9 6-2.5 14.7-6.4 19.3-8.7 4.5-2.2 13.7-7.8 20.4-12.4 6.8-4.5 16.6-11.6 21.8-15.8 5.2-4.2 14.2-12.6 20-18.6 5.8-6 13.5-15.2 17.2-20.4 3.7-5.2 9.4-14.6 12.7-20.9 3.3-6.3 7.6-16.2 9.5-22 1.9-5.8 4.3-14.3 5.3-19 1.4-6.7 1.8-12.8 1.7-29.5 0-18.8-.3-22.2-2.6-32.5-1.4-6.3-4.2-16-6.3-21.5-2-5.5-6.5-15.9-10-23s-8.9-16.8-12.1-21.5c-3.1-4.7-8.4-12.1-11.8-16.5-3.3-4.4-9-11.4-12.7-15.5-3.6-4.1-10.7-12-15.8-17.5-5.1-5.5-12-13.6-15.3-18-3.3-4.4-8.5-13-11.4-19-3-6.1-6.3-14.6-7.5-19-1.7-6.2-2.1-11-2.2-21.5 0-9.3.5-16 1.7-21.5 1-4.4 5.1-18.4 9.1-31 4-12.6 8.1-27.7 9-33.5 1.3-7.6 1.6-13.1 1.2-20-.3-5.2-1.4-12-2.3-15-.9-3-3-8.2-4.7-11.5-1.7-3.4-6.1-9.2-10.1-13.3-3.9-4.1-9.8-8.9-13.1-10.7-3.3-1.9-8.7-4.1-12-5-3.3-.8-9.9-1.5-14.7-1.5-4.9 0-11.2.5-14 1.1-2.9.6-8 2-11.3 3.1-3.3 1.1-11 4.3-17 7.2-6 2.9-20.2 10.6-31.5 17.1-11.3 6.6-24.4 13.7-29.3 15.7-4.8 2.1-12 4.7-15.9 5.7-4 1.1-10.2 2.2-13.8 2.6-4.4.4-8.9.1-14-1-4.1-.8-10.2-3-13.4-4.8-3.3-1.8-9-6.1-12.6-9.7-3.7-3.7-11.1-13.2-17-21.9-6.4-9.4-12.7-17.4-16-20.4-3-2.7-7.7-6-10.5-7.3-3.6-1.8-7.2-2.6-13-2.9-4.7-.3-10.1.1-13 .8Z" class="s0" paint-order="fill"/>
    </clipPath>
    <mask id="v">
      <use xlink:href="#i" stroke-width="0" style="transform-box:fill-box" transform="rotate(180 -.0000135 -.000009)" transform-origin="50% 50%"/>
    </mask>
    <mask id="y">
      <use xlink:href="#i" stroke-width="0" style="transform-box:fill-box" transform="rotate(180 -.0000135 -.000009)" transform-origin="50% 50%"/>
    </mask>
    <mask id="B">
      <use xlink:href="#i" stroke-width="0" style="transform-box:fill-box" transform="rotate(180 -.0000135 -.000009)" transform-origin="50% 50%"/>
    </mask>
  </defs>
  <path fill="url(#j)" d="M332.00342917 344.1h13.74849v62.27040167h-13.74849v-3.427515c-3.29891334 3.04355333-7.54047 4.87502166-12.16754 4.87502166-10.51695167 0-19.04207667-9.45168-19.04207667-21.11107833s8.525125-21.11107833 19.04207667-21.11107833c4.62707 0 8.86862666 1.83232 12.16754 4.87417V344.1zm0 42.60683c0-5.01771667-3.563665-9.086245-8.37559334-9.086245s-8.71239833 4.06851667-8.71239833 9.086245c0 5.01858 3.90047 9.08709667 8.71239833 9.08709667s8.37559334-4.06938 8.37559334-9.08709667z" transform="translate(11 3)"/>
  <path fill="url(#k)" d="M353.3174375 351.62617833c0-4.34152833 3.41056333-7.86217833 7.61751667-7.86217833 4.208085 0 7.61864833 3.52065 7.61864833 7.86217833 0 4.34239167-3.41056333 7.86304167-7.61864833 7.86304167-4.20695334-.00001167-7.61751667-3.52066167-7.61751667-7.86304167z" transform="translate(11 3)"/>
  <path fill="url(#l)" d="M354.0229675 406.35184v-39.54134333h13.74849V406.35184h-13.74849zm44.95608833-9.94733833v11.40818c-8.04931166 0-20.68327333-1.69773334-20.68327333-15.46232334V378.92857h-4.33797v-12.12311333h4.33797V354.936h13.74763833v35.00256667c.00001167 2.35554666 1.27775667 6.465935 6.935635 6.465935z" transform="translate(11 3)"/>
  <path fill="url(#m)" d="M394.6604525 374.650835c0-4.34138833 3.41056333-7.86217833 7.61864833-7.86217833 4.20695334 0 7.61751667 3.52079 7.61751667 7.86217833 0 4.34239167-3.41056333 7.86233-7.61751667 7.86233-4.208085 0-7.61864833-3.51993833-7.61864833-7.86233z" transform="translate(11 3)"/>
  <path fill="url(#n)" d="M438.1899875 396.40450167v11.40818c-8.04931167 0-20.68327333-1.69773334-20.68327333-15.46232334V378.92857h-4.33797v-12.12311333h4.33797V354.936h13.74763833v35.00256667c.00001167 2.35554666 1.27775667 6.465935 6.935635 6.465935z" transform="translate(11 3)"/>
  <path fill="url(#o)" d="M433.87138417 374.650835c0-4.34138833 3.41056333-7.86217833 7.61864833-7.86217833 4.20695333 0 7.61751667 3.52079 7.61751667 7.86217833 0 4.34239167-3.41056334 7.86233-7.61751667 7.86233-4.208085 0-7.61864833-3.51993833-7.61864833-7.86233z" transform="translate(11 3)"/>
  <path fill="url(#p)" d="M555.297 386.706c0 11.659-8.526 21.111-19.042 21.111-4.628 0-8.868-1.831-12.168-4.874v3.427h-13.748V344.1h13.748v26.369c3.3-3.043 7.54-4.874 12.168-4.874 10.516 0 19.041 9.452 19.042 21.111Zm-14.121 0c0-5.018-3.901-9.086-8.713-9.086-4.812 0-8.376 4.068-8.376 9.086 0 5.019 3.564 9.087 8.376 9.087 4.811 0 8.713-4.069 8.713-9.087Zm64.497-19.926-17.291 33.23-3.283 6.316-9.3 17.872h-13.748l11.897-23.501-18.334-33.917h16.174l9.599 19.215 9.729-19.215h14.557Zm27.501 29.625v11.408c-8.049 0-20.683-1.698-20.683-15.463v-13.421h-4.338v-12.124h4.338v-11.869h13.748v35.003c0 2.355 1.277 6.466 6.935 6.466Z" transform="translate(11 3)"/>
  <path fill="url(#q)" d="M628.856 374.651c0-4.342 3.41-7.862 7.618-7.862 4.207 0 7.618 3.52 7.618 7.862 0 4.342-3.411 7.862-7.618 7.862-4.208 0-7.618-3.52-7.618-7.862Z" transform="translate(11 3)"/>
  <path fill="url(#r)" d="M676.954 391.983h13.142c0 13.837-14.686 15.826-20.76 15.826-6.074 0-21.552-3.793-21.552-21.026s13.368-21.431 21.407-21.431c12.421 0 18.236 6.406 20.169 15.495.542 2.524.785 5.249.785 8.095h-28.621c0 6.478 3.388 9.017 8.265 9.017 4.876 0 7.165-2.741 7.165-5.976Zm-15.1-11.136h15.407l-.09-.056c0-2.912-2.199-6.422-7.609-6.422-5.402 0-7.707 3.866-7.708 6.478Zm66.396 12.099c0 10.836-9.974 14.877-18.329 14.877-8.354 0-15.399-4.548-15.399-4.548l4.959-9.867s5.456 4.009 10.816 4.009c2.236 0 4.282-1.376 4.282-3.006 0-6.138-17.126-.818-17.126-14.722 0-11.033 9.932-14.337 17.202-14.337 4.089 0 9.324 1.043 12.393 2.544l-4.583 9.095s-4.018-2.005-7.36-2.005c-2.866 0-4.206 1.442-4.206 2.853 0 4.684 17.351 1.1 17.351 15.107Z" transform="translate(11 3)"/>
  <g filter="none">
    <path fill="url(#s)" d="M350.015 162.066c-.896-.216-2.563-.34-4.015-.247-1.791.092-2.903.339-4.014.895-.865.402-2.317 1.421-3.243 2.255-1.019.926-2.965 3.397-4.941 6.3-1.822 2.686-4.108 5.62-5.25 6.763-1.112 1.111-2.872 2.439-3.891 2.995-.989.556-2.872 1.236-4.139 1.483-1.575.339-2.964.432-4.323.308-1.112-.123-3.026-.463-4.262-.802-1.204-.309-3.428-1.112-4.91-1.761-1.513-.617-5.559-2.81-9.048-4.848-3.49-2.008-7.875-4.386-9.728-5.281-1.853-.896-4.231-1.884-5.25-2.224-1.019-.339-2.594-.772-3.49-.957-.865-.185-2.81-.34-4.323-.34-1.483 0-3.521.217-4.54.464-1.019.278-2.687.957-3.706 1.544-1.019.556-2.841 2.038-4.046 3.304-1.235 1.266-2.594 3.057-3.119 4.107-.525 1.02-1.173 2.625-1.451 3.552-.278.926-.618 3.026-.71 4.632-.124 2.131-.031 3.83.37 6.177.278 1.791 1.544 6.454 2.78 10.345 1.235 3.891 2.501 8.215 2.81 9.574.37 1.698.525 3.767.525 6.639-.031 3.243-.155 4.725-.68 6.64-.37 1.359-1.389 3.984-2.316 5.867-.895 1.853-2.501 4.509-3.52 5.868-1.019 1.359-3.15 3.86-4.725 5.559-1.575 1.698-3.768 4.138-4.88 5.404-1.142 1.266-2.903 3.428-3.922 4.787-1.05 1.359-2.686 3.644-3.644 5.095-.988 1.452-2.656 4.447-3.736 6.64-1.081 2.193-2.471 5.404-3.089 7.103-.648 1.699-1.513 4.694-1.945 6.64-.711 3.18-.803 4.23-.803 10.036-.031 5.158.092 7.041.525 9.111.309 1.451 1.05 4.076 1.637 5.867.586 1.791 1.914 4.849 2.933 6.794 1.019 1.946 2.78 4.849 3.922 6.455 1.143 1.605 3.521 4.447 5.312 6.3 1.791 1.852 4.571 4.447 6.177 5.744 1.605 1.297 4.632 3.489 6.732 4.879 2.069 1.421 4.91 3.15 6.3 3.829 1.42.711 4.107 1.915 5.96 2.687 1.853.741 4.787 1.853 6.485 2.44 1.699.556 4.633 1.451 6.486 1.945 1.852.494 5.095 1.236 7.195 1.668 2.069.432 5.126.988 6.763 1.235 1.668.247 5.312.649 8.122.865 2.81.216 8.493.371 12.662.371 4.169 0 9.666-.186 12.198-.371 2.533-.216 5.961-.587 7.566-.865 1.606-.247 5.992-1.142 9.728-2.007 3.737-.865 8.894-2.254 11.427-3.088 2.532-.834 6.578-2.471 8.955-3.644 2.378-1.174 5.992-3.212 8.03-4.509 2.038-1.297 5.312-3.582 7.257-5.034 1.946-1.482 5.435-4.54 7.752-6.856 2.316-2.285 5.033-5.281 6.052-6.639 1.019-1.359 2.656-3.645 3.613-5.096.989-1.451 2.811-4.725 4.046-7.257 1.235-2.563 2.656-5.806 3.181-7.258.525-1.451 1.235-3.582 1.575-4.786.339-1.205.834-3.397 1.111-4.941.248-1.545.556-4.664.649-6.949.124-2.378.062-5.837-.154-8.029-.186-2.131-.556-5.096-.834-6.64-.247-1.544-.803-4.169-1.236-5.867-.432-1.699-1.42-4.695-2.192-6.64-.772-1.946-2.069-4.91-2.903-6.578-.834-1.637-2.347-4.416-3.397-6.176-1.019-1.73-4.076-6.362-6.763-10.253-2.687-3.891-5.744-8.555-6.825-10.346-1.081-1.791-2.594-4.694-3.397-6.485-.803-1.791-2.656-6.578-4.138-10.654-1.482-4.077-3.366-8.925-4.169-10.809-.803-1.884-2.193-4.663-3.058-6.177-.895-1.513-2.748-4.354-4.138-6.299-1.389-1.946-3.489-4.571-4.694-5.837-1.204-1.297-3.273-3.15-4.632-4.169-1.359-1.019-3.521-2.347-4.787-2.965-1.266-.587-2.995-1.266-3.86-1.482Zm-7.301 115.669c0 16.625-12.682 30.102-28.325 30.102-15.643 0-28.325-13.477-28.325-30.102 0-16.626 12.682-30.103 28.325-30.103 15.643 0 28.325 13.477 28.325 30.103Z" class="s0" filter="none" paint-order="fill" transform="translate(390.860894 304.035706) scale(.306519)"/>
    <path fill="url(#t)" stroke="#ed9ab5" stroke-width="3.23812" d="M462.502 166.433C671.525 302.988-65.295 424.647 135.783 697.127l12.137 78.697 134.871 15.655 261.313-12.042 162.568-140.892-3.613-169.793-97.541-173.406-25.288-118.013-73.457-49.372-44.271 38.472Z" clip-path="url(#u)" mask="url(#v)" transform="matrix(-.09466 0 0 .09466 520.96439346 338.98838758)"/>
    <path fill="url(#w)" stroke="#e2265c" stroke-width="3.23812" d="M522.6 310.447C461.065 498.772 19.581 570.245 187.458 736.694l109.309 96.652 243.931 20.711 128.87-147.279 27.615-204.81-92.05-158.786-82.533-32.735Z" clip-path="url(#x)" mask="url(#y)" transform="matrix(-.09466 0 0 .09466 520.96439346 338.98838758)"/>
    <path fill="url(#z)" stroke="#ed9ab5" stroke-width="3.23812" d="M532.815 374.668c5.334 240.307-572.95 311.405-282.514 378.591l-89.215 158.986 170.423-22.876 288.233-161.273 26.307-202.45-25.163-122.384-88.071-28.594Z" clip-path="url(#A)" mask="url(#B)" transform="matrix(-.09466 0 0 .09466 520.96439346 338.98838758)"/>
    <g fill="rgba(255,255,255,.733)" transform="translate(390.86090214 304.0357095) scale(.306519)">
      <ellipse cx="303.299" cy="193.223" rx="3.213" ry="6.104" style="transform-box:fill-box" transform="rotate(-25.93022 24.43627796 -27.07734587)" transform-origin="50% 50%"/>
      <ellipse cx="303.299" cy="193.223" rx="3.213" ry="6.104" transform="rotate(-20.46941 32.87130628 -138.22511374)" transform-origin="303.299px 193.223px"/>
    </g>
  </g>
</svg>