<!--
 * GNU General Public License, version 2.0.
 *
 * Copyright (c) 2025 Tijme Gommers (@tijme).
 *
 * This source code file is part of Dittobytes. Dittobytes is 
 * licensed under GNU General Public License, version 2.0, and 
 * you are free to use, modify, and distribute this file under 
 * its terms. However, any modified versions of this file must 
 * include this same license and copyright notice.
-->
<svg xmlns="http://www.w3.org/2000/svg" viewBox="300.79382324 343.76400757 422.45574951 80.43417358">
    <path fill="#ec0545" d="M332.00342917 344.1h13.74849v62.27040167h-13.74849v-3.427515c-3.29891334 3.04355333-7.54047 4.87502166-12.16754 4.87502166-10.51695167 0-19.04207667-9.45168-19.04207667-21.11107833s8.525125-21.11107833 19.04207667-21.11107833c4.62707 0 8.86862666 1.83232 12.16754 4.87417V344.1zm0 42.60683c0-5.01771667-3.563665-9.086245-8.37559334-9.086245s-8.71239833 4.06851667-8.71239833 9.086245c0 5.01858 3.90047 9.08709667 8.71239833 9.08709667s8.37559334-4.06938 8.37559334-9.08709667z"/>
    <path fill="#c7003b" d="M353.3174375 351.62617833c0-4.34152833 3.41056333-7.86217833 7.61751667-7.86217833 4.208085 0 7.61864833 3.52065 7.61864833 7.86217833 0 4.34239167-3.41056333 7.86304167-7.61864833 7.86304167-4.20695334-.00001167-7.61751667-3.52066167-7.61751667-7.86304167z"/>
    <path fill="#ec0545" d="M354.0229675 406.35184v-39.54134333h13.74849V406.35184h-13.74849zm44.95608833-9.94733833v11.40818c-8.04931166 0-20.68327333-1.69773334-20.68327333-15.46232334V378.92857h-4.33797v-12.12311333h4.33797V354.936h13.74763833v35.00256667c.00001167 2.35554666 1.27775667 6.465935 6.935635 6.465935z"/>
    <path fill="#c7003b" d="M394.6604525 374.650835c0-4.34138833 3.41056333-7.86217833 7.61864833-7.86217833 4.20695334 0 7.61751667 3.52079 7.61751667 7.86217833 0 4.34239167-3.41056333 7.86233-7.61751667 7.86233-4.208085 0-7.61864833-3.51993833-7.61864833-7.86233z"/>
    <path fill="#ec0545" d="M438.1899875 396.40450167v11.40818c-8.04931167 0-20.68327333-1.69773334-20.68327333-15.46232334V378.92857h-4.33797v-12.12311333h4.33797V354.936h13.74763833v35.00256667c.00001167 2.35554666 1.27775667 6.465935 6.935635 6.465935z"/>
    <path fill="#c7003b" d="M433.87138417 374.650835c0-4.34138833 3.41056333-7.86217833 7.61864833-7.86217833 4.20695333 0 7.61751667 3.52079 7.61751667 7.86217833 0 4.34239167-3.41056334 7.86233-7.61751667 7.86233-4.208085 0-7.61864833-3.51993833-7.61864833-7.86233z"/>
    <path fill="#ec0545" d="M498.90300583 386.58741c0 11.728185-9.140215 21.34207833-23.136225 21.34207833-13.99543833 0-23.13509333-9.61389333-23.13509333-21.34207833 0-11.72833667 9.13964333-21.23541 23.13509333-21.23541 13.99601 0 23.136225 9.50707333 23.136225 21.23541zm-14.35033833.05283833c0-5.07312166-3.93351-9.18607666-8.78588667-9.18607666-4.851805 0-8.785315 4.112955-8.785315 9.18607666 0 5.07411334 3.93351 9.18706834 8.785315 9.18706834 4.85237667 0 8.78588667-4.112955 8.78588667-9.18706834zm65.74450167.06573c0 11.65939834-8.52583667 21.11107834-19.04193667 21.11107834-4.62793333 0-8.867775-1.83145667-12.16839167-4.87417v3.427515H505.3390625V344.1h13.74777833v26.36905833c3.30061667-3.04270166 7.54047-4.87417 12.16839167-4.87417 10.5161 0 19.041085 9.45168 19.04193667 21.11109zm-14.121625 0c0-5.01771666-3.90047-9.086245-8.71239834-9.086245s-8.376305 4.06851667-8.376305 9.086245c0 5.01858 3.56437667 9.08709667 8.376305 9.08709667 4.81121667 0 8.71239834-4.06938 8.71239834-9.08709667zM600.67273917 366.78l-17.29036167 33.22992167-3.28295333 6.31569166-9.30029334 17.87256334h-13.74821l11.896815-23.50111167L550.61374417 366.78h16.17382666l9.59936834 19.214965L586.1161925 366.78h14.55654667zm27.50162333 29.62450167v11.40818c-8.04931167 0-20.68327333-1.69773334-20.68327333-15.46232334V378.92857h-4.33797v-12.12311333h4.33797V354.936h13.74763833v35.00256667c.00001167 2.35554666 1.27775667 6.465935 6.935635 6.465935z"/>
    <path fill="#c7003b" d="M623.85575917 374.650835c0-4.34138833 3.41056333-7.86217833 7.61864833-7.86217833 4.20695333 0 7.61751667 3.52079 7.61751667 7.86217833 0 4.34239167-3.41056334 7.86233-7.61751667 7.86233-4.208085 0-7.61864833-3.51993833-7.61864833-7.86233z"/>
    <path fill="#ec0545" d="M671.95385583 391.98310333h13.14209167c0 13.836795-14.68615167 15.826195-20.75988833 15.826195s-21.55199667-3.79295-21.55199667-21.02620333S656.15202083 365.352 664.1907975 365.352c12.421185 0 18.23628333 6.40556 20.16914667 15.49507167.54203333 2.523605.78471166 5.24871666.78471166 8.09489333h-28.620375c0 6.477905 3.38805834 9.01745833 8.26464334 9.01745833 4.875745 0 7.16493166-2.74121166 7.16493166-5.97632zm-15.099455-11.13602h15.40620667l-.08915667-.05625666c0-2.911685-2.19917833-6.42150834-7.60925666-6.42150834-5.401795 0-7.70693 3.86600667-7.70779334 6.477765zm66.39516334 12.09874167c0 10.836105-9.973635 14.876855-18.32828667 14.876855s-15.39909-4.54804-15.39909-4.54804l4.95833333-9.866675s5.45679167 4.00885333 10.81672667 4.00885333c2.23591667 0 4.28157333-1.376165 4.28157333-3.00582333 0-6.13753-17.12573333-.81832333-17.12573333-14.72233 0-11.03263 9.93204333-14.336665 17.20149667-14.336665 4.08959833 0 9.32479333 1.04333833 12.39355833 2.54382333l-4.58292333 9.09535667s-4.01839667-2.00520833-7.36059334-2.00520833c-2.86539166 0-4.20581 1.44153333-4.20581 2.85286166 0 4.68433 17.35132 1.099735 17.35074834 15.10699167z"/>
</svg>
