<!--
 * GNU General Public License, version 2.0.
 *
 * Copyright (c) 2025 Tijme Gommers (@tijme).
 *
 * This source code file is part of Dittobytes. Dittobytes is 
 * licensed under GNU General Public License, version 2.0, and 
 * you are free to use, modify, and distribute this file under 
 * its terms. However, any modified versions of this file must 
 * include this same license and copyright notice.
-->
<svg xmlns="http://www.w3.org/2000/svg" viewBox="230.84 161.79 180.42 184.98">
  <defs>
    <linearGradient id="a">
      <stop offset="0" stop-color="#f8c0d0"/>
      <stop offset="1" stop-color="#f1145a"/>
    </linearGradient>
    <linearGradient id="i" x1="339.305" x2="339.305" y1="206.399" y2="805.4" gradientTransform="translate(-4.453537 -51.758141)" gradientUnits="userSpaceOnUse" href="#a" spreadMethod="pad"/>
    <linearGradient id="g" x1="339.305" x2="339.305" y1="206.399" y2="805.4" gradientTransform="translate(-4.453537 -51.758141)" gradientUnits="userSpaceOnUse" href="#a" spreadMethod="pad"/>
    <linearGradient id="f" x1="339.305" x2="339.305" y1="206.399" y2="805.4" gradientTransform="translate(-4.453537 -51.758141)" gradientUnits="userSpaceOnUse" href="#a" spreadMethod="pad"/>
    <linearGradient id="c">
      <stop offset="0" stop-color="#ed004b"/>
      <stop offset="1" stop-color="#9f0046"/>
    </linearGradient>
    <linearGradient id="b">
      <stop offset="0" stop-color="#9e0044"/>
      <stop offset="1" stop-color="#4e0144"/>
    </linearGradient>
    <linearGradient id="d">
      <stop offset="0" stop-color="#f0074b"/>
      <stop offset="1" stop-color="#9d0046"/>
    </linearGradient>
    <linearGradient id="h" x1="394.023" x2="394.023" y1="374.668" y2="753.642" gradientUnits="userSpaceOnUse" href="#b"/>
    <linearGradient id="p" x1="369.478" x2="369.478" y1="380.727" y2="753.642" gradientUnits="userSpaceOnUse" href="#c"/>
    <linearGradient id="l" x1="388.289" x2="388.289" y1="310.447" y2="753.642" gradientUnits="userSpaceOnUse" href="#d"/>
    <linearGradient id="e">
      <stop offset="0" stop-color="#ff4667"/>
      <stop offset="1" stop-color="#d6004e"/>
    </linearGradient>
    <linearGradient id="j" x1="349.594" x2="349.594" y1="154.641" y2="753.642" gradientUnits="userSpaceOnUse" href="#e"/>
    <linearGradient id="n" x1="394.023" x2="394.023" y1="374.668" y2="753.642" gradientUnits="userSpaceOnUse" href="#b"/>
    <clipPath id="q"/>
    <clipPath id="m">
      <path fill="url(#f)" fill-opacity=".52" d="M241.046 155.542c-2.8.7-8.4 2.9-12.5 4.8-4.1 2-11.1 6.3-15.5 9.6s-11.1 9.3-15 13.5c-3.9 4.1-10.7 12.6-15.2 18.9-4.5 6.3-10.5 15.5-13.4 20.4-2.8 4.9-7.3 13.9-9.9 20-2.6 6.1-8.7 21.8-13.5 35-4.8 13.2-10.8 28.7-13.4 34.5-2.6 5.8-7.5 15.2-11 21-3.5 5.8-13.4 20.9-22.1 33.5-8.7 12.6-18.599 27.6-21.899 33.2-3.4 5.7-8.3 14.7-11 20-2.7 5.4-6.9 15-9.4 21.3-2.5 6.3-5.7 16-7.1 21.5-1.4 5.5-3.2 14-4 19-.9 5-2.1 14.6-2.7 21.5-.7 7.1-.9 18.3-.5 26 .3 7.4 1.3 17.5 2.1 22.5.9 5 2.5 12.1 3.6 16 1.1 3.9 3.4 10.8 5.1 15.5 1.7 4.7 6.3 15.2 10.3 23.5 4 8.2 9.9 18.8 13.1 23.5 3.1 4.7 8.4 12.1 11.699 16.5 3.3 4.4 12.1 14.1 19.6 21.5 7.5 7.5 18.8 17.4 25.1 22.2 6.3 4.7 16.9 12.1 23.5 16.3 6.6 4.2 18.3 10.8 26 14.6 7.7 3.8 20.8 9.1 29 11.8 8.2 2.7 24.9 7.2 37 10 12.1 2.8 26.3 5.7 31.5 6.5 5.2.9 16.3 2.1 24.5 2.8 8.2.6 26 1.2 39.5 1.2s31.9-.5 41-1.2c9.1-.7 20.9-2 26.3-2.8 5.3-.8 15.2-2.6 21.9-4 6.8-1.4 17.3-3.8 23.3-5.4 6-1.6 15.5-4.5 21-6.3 5.5-1.9 15-5.5 21-7.9 6-2.5 14.7-6.4 19.3-8.7 4.5-2.2 13.7-7.8 20.4-12.4 6.8-4.5 16.6-11.6 21.8-15.8 5.2-4.2 14.2-12.6 20-18.6 5.8-6 13.5-15.2 17.2-20.4 3.7-5.2 9.4-14.6 12.7-20.9 3.3-6.3 7.6-16.2 9.5-22 1.9-5.8 4.3-14.3 5.3-19 1.4-6.7 1.8-12.8 1.7-29.5 0-18.8-.3-22.2-2.6-32.5-1.4-6.3-4.2-16-6.3-21.5-2-5.5-6.5-15.9-10-23s-8.9-16.8-12.1-21.5c-3.1-4.7-8.4-12.1-11.8-16.5-3.3-4.4-9-11.4-12.7-15.5-3.6-4.1-10.7-12-15.8-17.5-5.1-5.5-12-13.6-15.3-18-3.3-4.4-8.5-13-11.4-19-3-6.1-6.3-14.6-7.5-19-1.7-6.2-2.1-11-2.2-21.5 0-9.3.5-16 1.7-21.5 1-4.4 5.1-18.4 9.1-31 4-12.6 8.1-27.7 9-33.5 1.3-7.6 1.6-13.1 1.2-20-.3-5.2-1.4-12-2.3-15-.9-3-3-8.2-4.7-11.5-1.7-3.4-6.1-9.2-10.1-13.3-3.9-4.1-9.8-8.9-13.1-10.7-3.3-1.9-8.7-4.1-12-5-3.3-.8-9.9-1.5-14.7-1.5-4.9 0-11.2.5-14 1.1-2.9.6-8 2-11.3 3.1-3.3 1.1-11 4.3-17 7.2-6 2.9-20.2 10.6-31.5 17.1-11.3 6.6-24.4 13.7-29.3 15.7-4.8 2.1-12 4.7-15.9 5.7-4 1.1-10.2 2.2-13.8 2.6-4.4.4-8.9.1-14-1-4.1-.8-10.2-3-13.4-4.8-3.3-1.8-9-6.1-12.6-9.7-3.7-3.7-11.1-13.2-17-21.9-6.4-9.4-12.7-17.4-16-20.4-3-2.7-7.7-6-10.5-7.3-3.6-1.8-7.2-2.6-13-2.9-4.7-.3-10.1.1-13 .8Z" class="s0" paint-order="fill"/>
    </clipPath>
    <clipPath id="k">
      <path fill="url(#g)" fill-opacity=".52" d="M241.046 155.542c-2.8.7-8.4 2.9-12.5 4.8-4.1 2-11.1 6.3-15.5 9.6s-11.1 9.3-15 13.5c-3.9 4.1-10.7 12.6-15.2 18.9-4.5 6.3-10.5 15.5-13.4 20.4-2.8 4.9-7.3 13.9-9.9 20-2.6 6.1-8.7 21.8-13.5 35-4.8 13.2-10.8 28.7-13.4 34.5-2.6 5.8-7.5 15.2-11 21-3.5 5.8-13.4 20.9-22.1 33.5-8.7 12.6-18.599 27.6-21.899 33.2-3.4 5.7-8.3 14.7-11 20-2.7 5.4-6.9 15-9.4 21.3-2.5 6.3-5.7 16-7.1 21.5-1.4 5.5-3.2 14-4 19-.9 5-2.1 14.6-2.7 21.5-.7 7.1-.9 18.3-.5 26 .3 7.4 1.3 17.5 2.1 22.5.9 5 2.5 12.1 3.6 16 1.1 3.9 3.4 10.8 5.1 15.5 1.7 4.7 6.3 15.2 10.3 23.5 4 8.2 9.9 18.8 13.1 23.5 3.1 4.7 8.4 12.1 11.699 16.5 3.3 4.4 12.1 14.1 19.6 21.5 7.5 7.5 18.8 17.4 25.1 22.2 6.3 4.7 16.9 12.1 23.5 16.3 6.6 4.2 18.3 10.8 26 14.6 7.7 3.8 20.8 9.1 29 11.8 8.2 2.7 24.9 7.2 37 10 12.1 2.8 26.3 5.7 31.5 6.5 5.2.9 16.3 2.1 24.5 2.8 8.2.6 26 1.2 39.5 1.2s31.9-.5 41-1.2c9.1-.7 20.9-2 26.3-2.8 5.3-.8 15.2-2.6 21.9-4 6.8-1.4 17.3-3.8 23.3-5.4 6-1.6 15.5-4.5 21-6.3 5.5-1.9 15-5.5 21-7.9 6-2.5 14.7-6.4 19.3-8.7 4.5-2.2 13.7-7.8 20.4-12.4 6.8-4.5 16.6-11.6 21.8-15.8 5.2-4.2 14.2-12.6 20-18.6 5.8-6 13.5-15.2 17.2-20.4 3.7-5.2 9.4-14.6 12.7-20.9 3.3-6.3 7.6-16.2 9.5-22 1.9-5.8 4.3-14.3 5.3-19 1.4-6.7 1.8-12.8 1.7-29.5 0-18.8-.3-22.2-2.6-32.5-1.4-6.3-4.2-16-6.3-21.5-2-5.5-6.5-15.9-10-23s-8.9-16.8-12.1-21.5c-3.1-4.7-8.4-12.1-11.8-16.5-3.3-4.4-9-11.4-12.7-15.5-3.6-4.1-10.7-12-15.8-17.5-5.1-5.5-12-13.6-15.3-18-3.3-4.4-8.5-13-11.4-19-3-6.1-6.3-14.6-7.5-19-1.7-6.2-2.1-11-2.2-21.5 0-9.3.5-16 1.7-21.5 1-4.4 5.1-18.4 9.1-31 4-12.6 8.1-27.7 9-33.5 1.3-7.6 1.6-13.1 1.2-20-.3-5.2-1.4-12-2.3-15-.9-3-3-8.2-4.7-11.5-1.7-3.4-6.1-9.2-10.1-13.3-3.9-4.1-9.8-8.9-13.1-10.7-3.3-1.9-8.7-4.1-12-5-3.3-.8-9.9-1.5-14.7-1.5-4.9 0-11.2.5-14 1.1-2.9.6-8 2-11.3 3.1-3.3 1.1-11 4.3-17 7.2-6 2.9-20.2 10.6-31.5 17.1-11.3 6.6-24.4 13.7-29.3 15.7-4.8 2.1-12 4.7-15.9 5.7-4 1.1-10.2 2.2-13.8 2.6-4.4.4-8.9.1-14-1-4.1-.8-10.2-3-13.4-4.8-3.3-1.8-9-6.1-12.6-9.7-3.7-3.7-11.1-13.2-17-21.9-6.4-9.4-12.7-17.4-16-20.4-3-2.7-7.7-6-10.5-7.3-3.6-1.8-7.2-2.6-13-2.9-4.7-.3-10.1.1-13 .8Z" class="s0" paint-order="fill"/>
    </clipPath>
    <clipPath id="o">
      <path fill="url(#h)" d="M241.046 155.542c-2.8.7-8.4 2.9-12.5 4.8-4.1 2-11.1 6.3-15.5 9.6s-11.1 9.3-15 13.5c-3.9 4.1-10.7 12.6-15.2 18.9-4.5 6.3-10.5 15.5-13.4 20.4-2.8 4.9-7.3 13.9-9.9 20-2.6 6.1-8.7 21.8-13.5 35-4.8 13.2-10.8 28.7-13.4 34.5-2.6 5.8-7.5 15.2-11 21-3.5 5.8-13.4 20.9-22.1 33.5-8.7 12.6-18.599 27.6-21.899 33.2-3.4 5.7-8.3 14.7-11 20-2.7 5.4-6.9 15-9.4 21.3-2.5 6.3-5.7 16-7.1 21.5-1.4 5.5-3.2 14-4 19-.9 5-2.1 14.6-2.7 21.5-.7 7.1-.9 18.3-.5 26 .3 7.4 1.3 17.5 2.1 22.5.9 5 2.5 12.1 3.6 16 1.1 3.9 3.4 10.8 5.1 15.5 1.7 4.7 6.3 15.2 10.3 23.5 4 8.2 9.9 18.8 13.1 23.5 3.1 4.7 8.4 12.1 11.699 16.5 3.3 4.4 12.1 14.1 19.6 21.5 7.5 7.5 18.8 17.4 25.1 22.2 6.3 4.7 16.9 12.1 23.5 16.3 6.6 4.2 18.3 10.8 26 14.6 7.7 3.8 20.8 9.1 29 11.8 8.2 2.7 24.9 7.2 37 10 12.1 2.8 26.3 5.7 31.5 6.5 5.2.9 16.3 2.1 24.5 2.8 8.2.6 26 1.2 39.5 1.2s31.9-.5 41-1.2c9.1-.7 20.9-2 26.3-2.8 5.3-.8 15.2-2.6 21.9-4 6.8-1.4 17.3-3.8 23.3-5.4 6-1.6 15.5-4.5 21-6.3 5.5-1.9 15-5.5 21-7.9 6-2.5 14.7-6.4 19.3-8.7 4.5-2.2 13.7-7.8 20.4-12.4 6.8-4.5 16.6-11.6 21.8-15.8 5.2-4.2 14.2-12.6 20-18.6 5.8-6 13.5-15.2 17.2-20.4 3.7-5.2 9.4-14.6 12.7-20.9 3.3-6.3 7.6-16.2 9.5-22 1.9-5.8 4.3-14.3 5.3-19 1.4-6.7 1.8-12.8 1.7-29.5 0-18.8-.3-22.2-2.6-32.5-1.4-6.3-4.2-16-6.3-21.5-2-5.5-6.5-15.9-10-23s-8.9-16.8-12.1-21.5c-3.1-4.7-8.4-12.1-11.8-16.5-3.3-4.4-9-11.4-12.7-15.5-3.6-4.1-10.7-12-15.8-17.5-5.1-5.5-12-13.6-15.3-18-3.3-4.4-8.5-13-11.4-19-3-6.1-6.3-14.6-7.5-19-1.7-6.2-2.1-11-2.2-21.5 0-9.3.5-16 1.7-21.5 1-4.4 5.1-18.4 9.1-31 4-12.6 8.1-27.7 9-33.5 1.3-7.6 1.6-13.1 1.2-20-.3-5.2-1.4-12-2.3-15-.9-3-3-8.2-4.7-11.5-1.7-3.4-6.1-9.2-10.1-13.3-3.9-4.1-9.8-8.9-13.1-10.7-3.3-1.9-8.7-4.1-12-5-3.3-.8-9.9-1.5-14.7-1.5-4.9 0-11.2.5-14 1.1-2.9.6-8 2-11.3 3.1-3.3 1.1-11 4.3-17 7.2-6 2.9-20.2 10.6-31.5 17.1-11.3 6.6-24.4 13.7-29.3 15.7-4.8 2.1-12 4.7-15.9 5.7-4 1.1-10.2 2.2-13.8 2.6-4.4.4-8.9.1-14-1-4.1-.8-10.2-3-13.4-4.8-3.3-1.8-9-6.1-12.6-9.7-3.7-3.7-11.1-13.2-17-21.9-6.4-9.4-12.7-17.4-16-20.4-3-2.7-7.7-6-10.5-7.3-3.6-1.8-7.2-2.6-13-2.9-4.7-.3-10.1.1-13 .8Z" class="s0" paint-order="fill"/>
    </clipPath>
    <filter id="r" width="200%" height="200%" x="-50%" y="-50%" color-interpolation-filters="sRGB">
      <feOffset/>
      <feGaussianBlur stdDeviation="1"/>
      <feComposite in="SourceGraphic" operator="out"/>
      <feComponentTransfer result="choke">
        <feFuncA type="linear"/>
      </feComponentTransfer>
      <feFlood flood-color="rgba(0,0,0,0.7)" result="color"/>
      <feComposite in="color" in2="choke" operator="in" result="shadow"/>
      <feComposite in="shadow" in2="SourceGraphic"/>
    </filter>
  </defs>
  <g filter="none">
    <path fill="url(#i)" fill-opacity=".52" d="M241.046 155.542c-2.8.7-8.4 2.9-12.5 4.8-4.1 2-11.1 6.3-15.5 9.6s-11.1 9.3-15 13.5c-3.9 4.1-10.7 12.6-15.2 18.9-4.5 6.3-10.5 15.5-13.4 20.4-2.8 4.9-7.3 13.9-9.9 20-2.6 6.1-8.7 21.8-13.5 35-4.8 13.2-10.8 28.7-13.4 34.5-2.6 5.8-7.5 15.2-11 21-3.5 5.8-13.4 20.9-22.1 33.5-8.7 12.6-18.599 27.6-21.899 33.2-3.4 5.7-8.3 14.7-11 20-2.7 5.4-6.9 15-9.4 21.3-2.5 6.3-5.7 16-7.1 21.5-1.4 5.5-3.2 14-4 19-.9 5-2.1 14.6-2.7 21.5-.7 7.1-.9 18.3-.5 26 .3 7.4 1.3 17.5 2.1 22.5.9 5 2.5 12.1 3.6 16 1.1 3.9 3.4 10.8 5.1 15.5 1.7 4.7 6.3 15.2 10.3 23.5 4 8.2 9.9 18.8 13.1 23.5 3.1 4.7 8.4 12.1 11.699 16.5 3.3 4.4 12.1 14.1 19.6 21.5 7.5 7.5 18.8 17.4 25.1 22.2 6.3 4.7 16.9 12.1 23.5 16.3 6.6 4.2 18.3 10.8 26 14.6 7.7 3.8 20.8 9.1 29 11.8 8.2 2.7 24.9 7.2 37 10 12.1 2.8 26.3 5.7 31.5 6.5 5.2.9 16.3 2.1 24.5 2.8 8.2.6 26 1.2 39.5 1.2s31.9-.5 41-1.2c9.1-.7 20.9-2 26.3-2.8 5.3-.8 15.2-2.6 21.9-4 6.8-1.4 17.3-3.8 23.3-5.4 6-1.6 15.5-4.5 21-6.3 5.5-1.9 15-5.5 21-7.9 6-2.5 14.7-6.4 19.3-8.7 4.5-2.2 13.7-7.8 20.4-12.4 6.8-4.5 16.6-11.6 21.8-15.8 5.2-4.2 14.2-12.6 20-18.6 5.8-6 13.5-15.2 17.2-20.4 3.7-5.2 9.4-14.6 12.7-20.9 3.3-6.3 7.6-16.2 9.5-22 1.9-5.8 4.3-14.3 5.3-19 1.4-6.7 1.8-12.8 1.7-29.5 0-18.8-.3-22.2-2.6-32.5-1.4-6.3-4.2-16-6.3-21.5-2-5.5-6.5-15.9-10-23s-8.9-16.8-12.1-21.5c-3.1-4.7-8.4-12.1-11.8-16.5-3.3-4.4-9-11.4-12.7-15.5-3.6-4.1-10.7-12-15.8-17.5-5.1-5.5-12-13.6-15.3-18-3.3-4.4-8.5-13-11.4-19-3-6.1-6.3-14.6-7.5-19-1.7-6.2-2.1-11-2.2-21.5 0-9.3.5-16 1.7-21.5 1-4.4 5.1-18.4 9.1-31 4-12.6 8.1-27.7 9-33.5 1.3-7.6 1.6-13.1 1.2-20-.3-5.2-1.4-12-2.3-15-.9-3-3-8.2-4.7-11.5-1.7-3.4-6.1-9.2-10.1-13.3-3.9-4.1-9.8-8.9-13.1-10.7-3.3-1.9-8.7-4.1-12-5-3.3-.8-9.9-1.5-14.7-1.5-4.9 0-11.2.5-14 1.1-2.9.6-8 2-11.3 3.1-3.3 1.1-11 4.3-17 7.2-6 2.9-20.2 10.6-31.5 17.1-11.3 6.6-24.4 13.7-29.3 15.7-4.8 2.1-12 4.7-15.9 5.7-4 1.1-10.2 2.2-13.8 2.6-4.4.4-8.9.1-14-1-4.1-.8-10.2-3-13.4-4.8-3.3-1.8-9-6.1-12.6-9.7-3.7-3.7-11.1-13.2-17-21.9-6.4-9.4-12.7-17.4-16-20.4-3-2.7-7.7-6-10.5-7.3-3.6-1.8-7.2-2.6-13-2.9-4.7-.3-10.1.1-13 .8Z" class="s0" filter="none" paint-order="fill" transform="matrix(-.308821 0 0 .308821 424.454926 114.031044)"/>
    <path fill="url(#j)" stroke="#ed9ab5" stroke-width="3.23812" d="M462.502 166.433C671.525 302.988-65.295 424.647 135.783 697.127l12.137 78.697 134.871 15.655 261.313-12.042 162.568-140.892-3.613-169.793-97.541-173.406-25.288-118.013-73.457-49.372-44.271 38.472Z" clip-path="url(#k)" transform="matrix(-.308821 0 0 .308821 424.454926 114.031044)"/>
    <path fill="url(#l)" stroke="#e2265c" stroke-width="3.23812" d="M522.6 310.447C461.065 498.772 19.581 570.245 187.458 736.694l109.309 96.652 243.931 20.711 128.87-147.279 27.615-204.81-92.05-158.786-82.533-32.735Z" clip-path="url(#m)" transform="matrix(-.308821 0 0 .308821 424.454926 114.031044)"/>
    <path fill="url(#n)" stroke="#b90248" stroke-width="3.23812" d="M532.815 374.668c5.334 240.307-572.95 311.405-282.514 378.591l-89.215 158.986 170.423-22.876 288.233-161.273 26.307-202.45-25.163-122.384-88.071-28.594Z" clip-path="url(#o)" transform="matrix(-.308821 0 0 .308821 424.454926 114.031044)"/>
    <path fill="url(#p)" d="M241.046 155.542c-2.8.7-8.4 2.9-12.5 4.8-4.1 2-11.1 6.3-15.5 9.6s-11.1 9.3-15 13.5c-3.9 4.1-10.7 12.6-15.2 18.9-4.5 6.3-10.5 15.5-13.4 20.4-2.8 4.9-7.3 13.9-9.9 20-2.6 6.1-8.7 21.8-13.5 35-4.8 13.2-10.8 28.7-13.4 34.5-2.6 5.8-7.5 15.2-11 21-3.5 5.8-13.4 20.9-22.1 33.5-8.7 12.6-18.599 27.6-21.899 33.2-3.4 5.7-8.3 14.7-11 20-2.7 5.4-6.9 15-9.4 21.3-2.5 6.3-5.7 16-7.1 21.5-1.4 5.5-3.2 14-4 19-.9 5-2.1 14.6-2.7 21.5-.7 7.1-.9 18.3-.5 26 .3 7.4 1.3 17.5 2.1 22.5.9 5 2.5 12.1 3.6 16 1.1 3.9 3.4 10.8 5.1 15.5 1.7 4.7 6.3 15.2 10.3 23.5 4 8.2 9.9 18.8 13.1 23.5 3.1 4.7 8.4 12.1 11.699 16.5 3.3 4.4 12.1 14.1 19.6 21.5 7.5 7.5 18.8 17.4 25.1 22.2 6.3 4.7 16.9 12.1 23.5 16.3 6.6 4.2 18.3 10.8 26 14.6 7.7 3.8 20.8 9.1 29 11.8 8.2 2.7 24.9 7.2 37 10 12.1 2.8 26.3 5.7 31.5 6.5 5.2.9 16.3 2.1 24.5 2.8 8.2.6 26 1.2 39.5 1.2s31.9-.5 41-1.2c9.1-.7 20.9-2 26.3-2.8 5.3-.8 15.2-2.6 21.9-4 6.8-1.4 17.3-3.8 23.3-5.4 6-1.6 15.5-4.5 21-6.3 5.5-1.9 15-5.5 21-7.9 6-2.5 14.7-6.4 19.3-8.7 4.5-2.2 13.7-7.8 20.4-12.4 6.8-4.5 16.6-11.6 21.8-15.8 5.2-4.2 14.2-12.6 20-18.6 5.8-6 13.5-15.2 17.2-20.4 3.7-5.2 9.4-14.6 12.7-20.9 3.3-6.3 7.6-16.2 9.5-22 1.9-5.8 4.3-14.3 5.3-19 1.4-6.7 1.8-12.8 1.7-29.5 0-18.8-.3-22.2-2.6-32.5-1.4-6.3-4.2-16-6.3-21.5-2-5.5-6.5-15.9-10-23s-8.9-16.8-12.1-21.5c-3.1-4.7-8.4-12.1-11.8-16.5-3.3-4.4-9-11.4-12.7-15.5-3.6-4.1-10.7-12-15.8-17.5-5.1-5.5-12-13.6-15.3-18-3.3-4.4-8.5-13-11.4-19-3-6.1-6.3-14.6-7.5-19-1.7-6.2-2.1-11-2.2-21.5 0-9.3.5-16 1.7-21.5 1-4.4 5.1-18.4 9.1-31 4-12.6 8.1-27.7 9-33.5 1.3-7.6 1.6-13.1 1.2-20-.3-5.2-1.4-12-2.3-15-.9-3-3-8.2-4.7-11.5-1.7-3.4-6.1-9.2-10.1-13.3-3.9-4.1-9.8-8.9-13.1-10.7-3.3-1.9-8.7-4.1-12-5-3.3-.8-9.9-1.5-14.7-1.5-4.9 0-11.2.5-14 1.1-2.9.6-8 2-11.3 3.1-3.3 1.1-11 4.3-17 7.2-6 2.9-20.2 10.6-31.5 17.1-11.3 6.6-24.4 13.7-29.3 15.7-4.8 2.1-12 4.7-15.9 5.7-4 1.1-10.2 2.2-13.8 2.6-4.4.4-8.9.1-14-1-4.1-.8-10.2-3-13.4-4.8-3.3-1.8-9-6.1-12.6-9.7-3.7-3.7-11.1-13.2-17-21.9-6.4-9.4-12.7-17.4-16-20.4-3-2.7-7.7-6-10.5-7.3-3.6-1.8-7.2-2.6-13-2.9-4.7-.3-10.1.1-13 .8Z" class="s0" clip-path="url(#q)" paint-order="fill" transform="matrix(-.308821 0 0 .308821 424.454926 114.031044)"/>
    <g transform="translate(.00002655 .00001139)">
      <ellipse cx="303.299" cy="193.223" fill="rgba(0,0,0,.733)" filter="url(#r)" rx="3.213" ry="6.104" style="transform-box:fill-box" transform="rotate(-25.93022 24.43627796 -27.07734587)" transform-origin="50% 50%"/>
      <ellipse cx="303.299" cy="193.223" fill="rgba(0,0,0,.733)" filter="url(#r)" rx="3.213" ry="6.104" transform="rotate(-20.46941 32.87130628 -138.22511374)" transform-origin="303.299px 193.223px"/>
      <path fill="rgba(0,0,0,.733)" d="M345.652 229.809h-5.428v-2.037h2.967v-21.533h-2.967v-2.037h5.428v25.607Z" filter="url(#r)" style="text-wrap-mode:nowrap;transform-box:fill-box" transform="rotate(79.78153 -.00003353 .00000364)" transform-origin="50% 50%"/>
    </g>
  </g>
</svg>