<!--
 * GNU General Public License, version 2.0.
 *
 * Copyright (c) 2025 Tijme Gommers (@tijme).
 *
 * This source code file is part of Dittobytes. Dittobytes is 
 * licensed under GNU General Public License, version 2.0, and 
 * you are free to use, modify, and distribute this file under 
 * its terms. However, any modified versions of this file must 
 * include this same license and copyright notice.
-->
<svg xmlns="http://www.w3.org/2000/svg" viewBox="2 2 20 20">
    <path xmlns="http://www.w3.org/2000/svg" fill="#ec0545" d="M10.4375 2C6.140625 2 3 4.824219 3 11c0 3.410156 1.773438 9.515625-1 11h2.3125c.890625-1.359375.78125-3.3125.78125-3.3125s-1.0625-1.453125-1.0625-2.21875c0-1.40625 1.125-2.15625 1.125-2.15625s-1.0625-1.007812-1.0625-2.75c0-1.507812 1.203125-2.1875 1.8125-2.1875C8.144531 9.375 8.25 12 8.25 12h2.125s-.136719-2.875 2.59375-2.875c.921875 0 2.5.808594 2.5 2.9375 0 1.199219-.375 1.9375-.375 1.9375s1.375.734375 1.375 2.03125c0 1.253906-.9375 2.3125-.9375 2.3125L17.09375 22H22s-3-1.210937-3-11c0-.746094.222656-9-8.5625-9ZM13.75 4.03125c.253906-.003906.539063.078125.8125.25.546875.347656.824219.921875.59375 1.28125-.230469.359375-.859375.378906-1.40625.03125s-.824219-.921875-.59375-1.28125c.113281-.179687.339844-.277344.59375-.28125ZM6.125 11c-.507812 0-1.09375.367188-1.09375 1.46875 0 .984375 1.28125 1.875 1.28125 1.875s-1.75.832031-1.75 2.15625c0 .726563.753906 1.46875 1.5 2.0625.738281.605469 1.675781 1.65625 2.9375 1.65625 1.796875 0 3.292969-1.359375 4.09375-1.84375C13.894531 17.890625 15.5 17.109375 15.5 16c0-1.328125-2.46875-1.71875-2.46875-1.71875s1.21875-.390625 1.21875-1.6875C14.25 11.679688 13.65625 11 12.90625 11c-1.085937 0-1.375 1.046875-1.375 1.59375 0 .617188.25 1.21875.25 1.21875S10.46875 13.03125 9 13.03125c-.785156 0-1.65625.53125-1.65625.53125s.09375-.433594.09375-.90625C7.4375 12.175781 7.15625 11 6.125 11Zm2.15625 2.75c.265625-.046875-.03125.453125-.34375.78125-.121094.125-.53125-.253906-.5-.34375.042969-.09375.441406-.351562.84375-.4375Zm1.4375 0c.199219 0 .621094.101563.84375.21875.167969.089844.136719.570313-.03125.65625-.21875.109375-.90625-.65625-.90625-.84375 0-.03125.027344-.03125.09375-.03125ZM14.5 16s-3.03125 3-5.5 3c-2.109375 0-3.9375-2.28125-3.9375-2.28125S7.140625 18 9 18c2.125 0 5.5-2 5.5-2Z"/>
</svg>
